<?xml version="1.0" encoding="UTF-8"?>
<!-- Gonzalez logo: the "sombrero function" (Mexican hat / Ricker wavelet
     surface) z = (1 - r^2) * exp(-r^2 / 2), drawn as a hidden-line ridge
     plot over the circular domain r <= 3.05 - a mathematically defined
     sombrero, a nod to the project's namesake. Since z is constant on the
     domain boundary, the rim projects to an exact ellipse, giving the
     brim silhouette. One occlusion fill plus one ridge stroke per
     constant-y slice, painted back to front. -->
<svg xmlns="http://www.w3.org/2000/svg" viewBox="0 0 160 140" width="160" height="140">
  <defs>
    <linearGradient id="hatRidge" x1="0%" y1="0%" x2="100%" y2="0%">
      <stop offset="0%" style="stop-color:#7a4a12"/>
      <stop offset="35%" style="stop-color:#e8a33d"/>
      <stop offset="50%" style="stop-color:#ffd57a"/>
      <stop offset="65%" style="stop-color:#e8a33d"/>
      <stop offset="100%" style="stop-color:#7a4a12"/>
    </linearGradient>
    <linearGradient id="hatBody" gradientUnits="userSpaceOnUse" x1="0" y1="24" x2="0" y2="112">
      <stop offset="0%" style="stop-color:#2a1705"/>
      <stop offset="100%" style="stop-color:#140a02"/>
    </linearGradient>
  </defs>
  <g>
    <path d="M45.4 34.9 L46.6 35.0 L47.7 35.2 L48.9 35.4 L50.0 35.6 L51.2 35.8 L52.4 36.0 L53.5 36.2 L54.7 36.4 L55.8 36.6 L57.0 36.7 L58.1 36.9 L59.3 37.1 L60.4 37.3 L61.6 37.4 L62.7 37.6 L63.9 37.8 L65.0 37.9 L66.2 38.1 L67.3 38.2 L68.5 38.3 L69.6 38.4 L70.8 38.5 L71.9 38.6 L73.1 38.7 L74.2 38.8 L75.4 38.8 L76.5 38.8 L77.7 38.9 L78.8 38.9 L80.0 38.9 L81.2 38.9 L82.3 38.9 L83.5 38.8 L84.6 38.8 L85.8 38.8 L86.9 38.7 L88.1 38.6 L89.2 38.5 L90.4 38.4 L91.5 38.3 L92.7 38.2 L93.8 38.1 L95.0 37.9 L96.1 37.8 L97.3 37.6 L98.4 37.4 L99.6 37.3 L100.7 37.1 L101.9 36.9 L103.0 36.7 L104.2 36.6 L105.3 36.4 L106.5 36.2 L107.6 36.0 L108.8 35.8 L110.0 35.6 L111.1 35.4 L112.3 35.2 L113.4 35.0 L114.6 34.9 L114.6 34.9 L123.4 38.6 L131.1 43.2 L137.5 48.4 L142.3 54.2 L145.5 60.3 L147.0 66.7 L146.7 73.1 L144.7 79.5 L140.9 85.5 L135.5 91.1 L128.7 96.1 L120.6 100.4 L111.4 103.9 L101.4 106.4 L90.9 108.0 L80.0 108.5 L69.1 108.0 L58.6 106.4 L48.6 103.9 L39.4 100.4 L31.3 96.1 L24.5 91.1 L19.1 85.5 L15.3 79.5 L13.3 73.1 L13.0 66.7 L14.5 60.3 L17.7 54.2 L22.5 48.4 L28.9 43.2 L36.6 38.6 L45.4 34.9 Z" fill="url(#hatBody)" stroke="none"/>
    <path d="M45.4 34.9 L46.6 35.0 L47.7 35.2 L48.9 35.4 L50.0 35.6 L51.2 35.8 L52.4 36.0 L53.5 36.2 L54.7 36.4 L55.8 36.6 L57.0 36.7 L58.1 36.9 L59.3 37.1 L60.4 37.3 L61.6 37.4 L62.7 37.6 L63.9 37.8 L65.0 37.9 L66.2 38.1 L67.3 38.2 L68.5 38.3 L69.6 38.4 L70.8 38.5 L71.9 38.6 L73.1 38.7 L74.2 38.8 L75.4 38.8 L76.5 38.8 L77.7 38.9 L78.8 38.9 L80.0 38.9 L81.2 38.9 L82.3 38.9 L83.5 38.8 L84.6 38.8 L85.8 38.8 L86.9 38.7 L88.1 38.6 L89.2 38.5 L90.4 38.4 L91.5 38.3 L92.7 38.2 L93.8 38.1 L95.0 37.9 L96.1 37.8 L97.3 37.6 L98.4 37.4 L99.6 37.3 L100.7 37.1 L101.9 36.9 L103.0 36.7 L104.2 36.6 L105.3 36.4 L106.5 36.2 L107.6 36.0 L108.8 35.8 L110.0 35.6 L111.1 35.4 L112.3 35.2 L113.4 35.0 L114.6 34.9" fill="none" stroke="url(#hatRidge)" stroke-width="1.06" stroke-opacity="0.49" stroke-linejoin="round" stroke-linecap="round"/>
    <path d="M33.0 40.5 L34.6 40.9 L36.2 41.2 L37.7 41.6 L39.3 42.0 L40.9 42.4 L42.4 42.9 L44.0 43.3 L45.6 43.8 L47.1 44.2 L48.7 44.7 L50.3 45.2 L51.8 45.6 L53.4 46.1 L55.0 46.5 L56.5 47.0 L58.1 47.4 L59.7 47.7 L61.2 48.1 L62.8 48.4 L64.3 48.8 L65.9 49.0 L67.5 49.3 L69.0 49.5 L70.6 49.7 L72.2 49.9 L73.7 50.0 L75.3 50.1 L76.9 50.2 L78.4 50.2 L80.0 50.2 L81.6 50.2 L83.1 50.2 L84.7 50.1 L86.3 50.0 L87.8 49.9 L89.4 49.7 L91.0 49.5 L92.5 49.3 L94.1 49.0 L95.7 48.8 L97.2 48.4 L98.8 48.1 L100.3 47.7 L101.9 47.4 L103.5 47.0 L105.0 46.5 L106.6 46.1 L108.2 45.6 L109.7 45.2 L111.3 44.7 L112.9 44.2 L114.4 43.8 L116.0 43.3 L117.6 42.9 L119.1 42.4 L120.7 42.0 L122.3 41.6 L123.8 41.2 L125.4 40.9 L127.0 40.5 L127.0 40.5 L133.5 44.9 L138.9 49.9 L143.0 55.2 L145.7 60.8 L147.0 66.6 L146.8 72.5 L145.2 78.3 L142.1 83.8 L137.7 89.1 L132.0 93.9 L125.2 98.1 L117.4 101.8 L108.8 104.7 L99.6 106.8 L89.9 108.1 L80.0 108.5 L70.1 108.1 L60.4 106.8 L51.2 104.7 L42.6 101.8 L34.8 98.1 L28.0 93.9 L22.3 89.1 L17.9 83.8 L14.8 78.3 L13.2 72.5 L13.0 66.6 L14.3 60.8 L17.0 55.2 L21.1 49.9 L26.5 44.9 L33.0 40.5 Z" fill="url(#hatBody)" stroke="none"/>
    <path d="M33.0 40.5 L34.6 40.9 L36.2 41.2 L37.7 41.6 L39.3 42.0 L40.9 42.4 L42.4 42.9 L44.0 43.3 L45.6 43.8 L47.1 44.2 L48.7 44.7 L50.3 45.2 L51.8 45.6 L53.4 46.1 L55.0 46.5 L56.5 47.0 L58.1 47.4 L59.7 47.7 L61.2 48.1 L62.8 48.4 L64.3 48.8 L65.9 49.0 L67.5 49.3 L69.0 49.5 L70.6 49.7 L72.2 49.9 L73.7 50.0 L75.3 50.1 L76.9 50.2 L78.4 50.2 L80.0 50.2 L81.6 50.2 L83.1 50.2 L84.7 50.1 L86.3 50.0 L87.8 49.9 L89.4 49.7 L91.0 49.5 L92.5 49.3 L94.1 49.0 L95.7 48.8 L97.2 48.4 L98.8 48.1 L100.3 47.7 L101.9 47.4 L103.5 47.0 L105.0 46.5 L106.6 46.1 L108.2 45.6 L109.7 45.2 L111.3 44.7 L112.9 44.2 L114.4 43.8 L116.0 43.3 L117.6 42.9 L119.1 42.4 L120.7 42.0 L122.3 41.6 L123.8 41.2 L125.4 40.9 L127.0 40.5" fill="none" stroke="url(#hatRidge)" stroke-width="1.11" stroke-opacity="0.53" stroke-linejoin="round" stroke-linecap="round"/>
    <path d="M24.9 46.2 L26.8 46.7 L28.6 47.2 L30.4 47.8 L32.3 48.4 L34.1 49.1 L35.9 49.8 L37.8 50.5 L39.6 51.3 L41.5 52.0 L43.3 52.8 L45.1 53.6 L47.0 54.3 L48.8 55.0 L50.6 55.7 L52.5 56.3 L54.3 56.9 L56.1 57.4 L58.0 57.9 L59.8 58.2 L61.6 58.6 L63.5 58.8 L65.3 59.0 L67.2 59.2 L69.0 59.3 L70.8 59.3 L72.7 59.4 L74.5 59.4 L76.3 59.4 L78.2 59.4 L80.0 59.4 L81.8 59.4 L83.7 59.4 L85.5 59.4 L87.3 59.4 L89.2 59.3 L91.0 59.3 L92.8 59.2 L94.7 59.0 L96.5 58.8 L98.4 58.6 L100.2 58.2 L102.0 57.9 L103.9 57.4 L105.7 56.9 L107.5 56.3 L109.4 55.7 L111.2 55.0 L113.0 54.3 L114.9 53.6 L116.7 52.8 L118.5 52.0 L120.4 51.3 L122.2 50.5 L124.1 49.8 L125.9 49.1 L127.7 48.4 L129.6 47.8 L131.4 47.2 L133.2 46.7 L135.1 46.2 L135.1 46.2 L139.8 50.8 L143.4 55.8 L145.8 61.0 L147.0 66.3 L146.9 71.7 L145.6 77.1 L143.1 82.3 L139.5 87.2 L134.7 91.8 L128.9 96.0 L122.2 99.7 L114.8 102.8 L106.7 105.2 L98.1 107.0 L89.1 108.1 L80.0 108.5 L70.9 108.1 L61.9 107.0 L53.3 105.2 L45.2 102.8 L37.8 99.7 L31.1 96.0 L25.3 91.8 L20.5 87.2 L16.9 82.3 L14.4 77.1 L13.1 71.7 L13.0 66.3 L14.2 61.0 L16.6 55.8 L20.2 50.8 L24.9 46.2 Z" fill="url(#hatBody)" stroke="none"/>
    <path d="M24.9 46.2 L26.8 46.7 L28.6 47.2 L30.4 47.8 L32.3 48.4 L34.1 49.1 L35.9 49.8 L37.8 50.5 L39.6 51.3 L41.5 52.0 L43.3 52.8 L45.1 53.6 L47.0 54.3 L48.8 55.0 L50.6 55.7 L52.5 56.3 L54.3 56.9 L56.1 57.4 L58.0 57.9 L59.8 58.2 L61.6 58.6 L63.5 58.8 L65.3 59.0 L67.2 59.2 L69.0 59.3 L70.8 59.3 L72.7 59.4 L74.5 59.4 L76.3 59.4 L78.2 59.4 L80.0 59.4 L81.8 59.4 L83.7 59.4 L85.5 59.4 L87.3 59.4 L89.2 59.3 L91.0 59.3 L92.8 59.2 L94.7 59.0 L96.5 58.8 L98.4 58.6 L100.2 58.2 L102.0 57.9 L103.9 57.4 L105.7 56.9 L107.5 56.3 L109.4 55.7 L111.2 55.0 L113.0 54.3 L114.9 53.6 L116.7 52.8 L118.5 52.0 L120.4 51.3 L122.2 50.5 L124.1 49.8 L125.9 49.1 L127.7 48.4 L129.6 47.8 L131.4 47.2 L133.2 46.7 L135.1 46.2" fill="none" stroke="url(#hatRidge)" stroke-width="1.17" stroke-opacity="0.57" stroke-linejoin="round" stroke-linecap="round"/>
    <path d="M19.4 51.9 L21.4 52.4 L23.4 53.1 L25.4 53.9 L27.5 54.7 L29.5 55.6 L31.5 56.5 L33.5 57.5 L35.5 58.5 L37.6 59.6 L39.6 60.6 L41.6 61.6 L43.6 62.5 L45.6 63.3 L47.7 63.9 L49.7 64.5 L51.7 64.8 L53.7 65.0 L55.7 65.1 L57.8 64.9 L59.8 64.6 L61.8 64.2 L63.8 63.6 L65.9 63.0 L67.9 62.3 L69.9 61.7 L71.9 61.1 L73.9 60.6 L76.0 60.2 L78.0 59.9 L80.0 59.9 L82.0 59.9 L84.0 60.2 L86.1 60.6 L88.1 61.1 L90.1 61.7 L92.1 62.3 L94.1 63.0 L96.2 63.6 L98.2 64.2 L100.2 64.6 L102.2 64.9 L104.3 65.1 L106.3 65.0 L108.3 64.8 L110.3 64.5 L112.3 63.9 L114.4 63.3 L116.4 62.5 L118.4 61.6 L120.4 60.6 L122.4 59.6 L124.5 58.5 L126.5 57.5 L128.5 56.5 L130.5 55.6 L132.5 54.7 L134.6 53.9 L136.6 53.1 L138.6 52.4 L140.6 51.9 L140.6 51.9 L143.8 56.5 L145.9 61.3 L147.0 66.3 L147.0 71.3 L145.9 76.2 L143.9 81.0 L140.8 85.7 L136.7 90.0 L131.8 94.1 L126.0 97.7 L119.5 100.9 L112.4 103.6 L104.7 105.7 L96.7 107.3 L88.4 108.2 L80.0 108.5 L71.6 108.2 L63.3 107.3 L55.3 105.7 L47.6 103.6 L40.5 100.9 L34.0 97.7 L28.2 94.1 L23.3 90.0 L19.2 85.7 L16.1 81.0 L14.1 76.2 L13.0 71.3 L13.0 66.3 L14.1 61.3 L16.2 56.5 L19.4 51.9 Z" fill="url(#hatBody)" stroke="none"/>
    <path d="M19.4 51.9 L21.4 52.4 L23.4 53.1 L25.4 53.9 L27.5 54.7 L29.5 55.6 L31.5 56.5 L33.5 57.5 L35.5 58.5 L37.6 59.6 L39.6 60.6 L41.6 61.6 L43.6 62.5 L45.6 63.3 L47.7 63.9 L49.7 64.5 L51.7 64.8 L53.7 65.0 L55.7 65.1 L57.8 64.9 L59.8 64.6 L61.8 64.2 L63.8 63.6 L65.9 63.0 L67.9 62.3 L69.9 61.7 L71.9 61.1 L73.9 60.6 L76.0 60.2 L78.0 59.9 L80.0 59.9 L82.0 59.9 L84.0 60.2 L86.1 60.6 L88.1 61.1 L90.1 61.7 L92.1 62.3 L94.1 63.0 L96.2 63.6 L98.2 64.2 L100.2 64.6 L102.2 64.9 L104.3 65.1 L106.3 65.0 L108.3 64.8 L110.3 64.5 L112.3 63.9 L114.4 63.3 L116.4 62.5 L118.4 61.6 L120.4 60.6 L122.4 59.6 L124.5 58.5 L126.5 57.5 L128.5 56.5 L130.5 55.6 L132.5 54.7 L134.6 53.9 L136.6 53.1 L138.6 52.4 L140.6 51.9" fill="none" stroke="url(#hatRidge)" stroke-width="1.23" stroke-opacity="0.61" stroke-linejoin="round" stroke-linecap="round"/>
    <path d="M15.7 57.5 L17.8 58.2 L20.0 59.0 L22.1 59.8 L24.3 60.8 L26.4 61.9 L28.6 63.0 L30.7 64.2 L32.8 65.5 L35.0 66.7 L37.1 67.8 L39.3 68.8 L41.4 69.7 L43.6 70.3 L45.7 70.7 L47.8 70.7 L50.0 70.4 L52.1 69.7 L54.3 68.7 L56.4 67.3 L58.6 65.5 L60.7 63.5 L62.9 61.3 L65.0 59.1 L67.1 56.8 L69.3 54.6 L71.4 52.6 L73.6 51.0 L75.7 49.8 L77.9 49.0 L80.0 48.7 L82.1 49.0 L84.3 49.8 L86.4 51.0 L88.6 52.6 L90.7 54.6 L92.9 56.8 L95.0 59.1 L97.1 61.3 L99.3 63.5 L101.4 65.5 L103.6 67.3 L105.7 68.7 L107.9 69.7 L110.0 70.4 L112.2 70.7 L114.3 70.7 L116.4 70.3 L118.6 69.7 L120.7 68.8 L122.9 67.8 L125.0 66.7 L127.2 65.5 L129.3 64.2 L131.4 63.0 L133.6 61.9 L135.7 60.8 L137.9 59.8 L140.0 59.0 L142.2 58.2 L144.3 57.5 L144.3 57.5 L146.1 62.0 L147.0 66.6 L147.0 71.2 L146.1 75.8 L144.3 80.3 L141.6 84.6 L138.1 88.7 L133.8 92.5 L128.8 96.1 L123.1 99.2 L116.9 102.0 L110.1 104.3 L102.9 106.1 L95.5 107.4 L87.8 108.2 L80.0 108.5 L72.2 108.2 L64.5 107.4 L57.1 106.1 L49.9 104.3 L43.1 102.0 L36.9 99.2 L31.2 96.1 L26.2 92.5 L21.9 88.7 L18.4 84.6 L15.7 80.3 L13.9 75.8 L13.0 71.2 L13.0 66.6 L13.9 62.0 L15.7 57.5 Z" fill="url(#hatBody)" stroke="none"/>
    <path d="M15.7 57.5 L17.8 58.2 L20.0 59.0 L22.1 59.8 L24.3 60.8 L26.4 61.9 L28.6 63.0 L30.7 64.2 L32.8 65.5 L35.0 66.7 L37.1 67.8 L39.3 68.8 L41.4 69.7 L43.6 70.3 L45.7 70.7 L47.8 70.7 L50.0 70.4 L52.1 69.7 L54.3 68.7 L56.4 67.3 L58.6 65.5 L60.7 63.5 L62.9 61.3 L65.0 59.1 L67.1 56.8 L69.3 54.6 L71.4 52.6 L73.6 51.0 L75.7 49.8 L77.9 49.0 L80.0 48.7 L82.1 49.0 L84.3 49.8 L86.4 51.0 L88.6 52.6 L90.7 54.6 L92.9 56.8 L95.0 59.1 L97.1 61.3 L99.3 63.5 L101.4 65.5 L103.6 67.3 L105.7 68.7 L107.9 69.7 L110.0 70.4 L112.2 70.7 L114.3 70.7 L116.4 70.3 L118.6 69.7 L120.7 68.8 L122.9 67.8 L125.0 66.7 L127.2 65.5 L129.3 64.2 L131.4 63.0 L133.6 61.9 L135.7 60.8 L137.9 59.8 L140.0 59.0 L142.2 58.2 L144.3 57.5" fill="none" stroke="url(#hatRidge)" stroke-width="1.29" stroke-opacity="0.65" stroke-linejoin="round" stroke-linecap="round"/>
    <path d="M13.6 63.2 L15.8 63.9 L18.0 64.7 L20.2 65.7 L22.4 66.8 L24.7 68.0 L26.9 69.2 L29.1 70.6 L31.3 71.9 L33.5 73.2 L35.7 74.3 L37.9 75.3 L40.2 76.0 L42.4 76.4 L44.6 76.3 L46.8 75.7 L49.0 74.6 L51.2 72.9 L53.4 70.6 L55.6 67.7 L57.9 64.3 L60.1 60.6 L62.3 56.5 L64.5 52.3 L66.7 48.2 L68.9 44.3 L71.1 40.8 L73.4 37.8 L75.6 35.6 L77.8 34.3 L80.0 33.8 L82.2 34.3 L84.4 35.6 L86.6 37.8 L88.9 40.8 L91.1 44.3 L93.3 48.2 L95.5 52.3 L97.7 56.5 L99.9 60.6 L102.1 64.3 L104.4 67.7 L106.6 70.6 L108.8 72.9 L111.0 74.6 L113.2 75.7 L115.4 76.3 L117.6 76.4 L119.8 76.0 L122.1 75.3 L124.3 74.3 L126.5 73.2 L128.7 71.9 L130.9 70.6 L133.1 69.2 L135.3 68.0 L137.6 66.8 L139.8 65.7 L142.0 64.7 L144.2 63.9 L146.4 63.2 L146.4 63.2 L147.1 67.4 L146.9 71.7 L146.0 75.9 L144.4 80.0 L142.0 84.0 L138.9 87.8 L135.1 91.5 L130.7 94.8 L125.7 97.9 L120.2 100.6 L114.2 103.0 L107.9 104.9 L101.2 106.5 L94.3 107.6 L87.2 108.3 L80.0 108.5 L72.8 108.3 L65.7 107.6 L58.8 106.5 L52.1 104.9 L45.8 103.0 L39.8 100.6 L34.3 97.9 L29.3 94.8 L24.9 91.5 L21.1 87.8 L18.0 84.0 L15.6 80.0 L14.0 75.9 L13.1 71.7 L12.9 67.4 L13.6 63.2 Z" fill="url(#hatBody)" stroke="none"/>
    <path d="M13.6 63.2 L15.8 63.9 L18.0 64.7 L20.2 65.7 L22.4 66.8 L24.7 68.0 L26.9 69.2 L29.1 70.6 L31.3 71.9 L33.5 73.2 L35.7 74.3 L37.9 75.3 L40.2 76.0 L42.4 76.4 L44.6 76.3 L46.8 75.7 L49.0 74.6 L51.2 72.9 L53.4 70.6 L55.6 67.7 L57.9 64.3 L60.1 60.6 L62.3 56.5 L64.5 52.3 L66.7 48.2 L68.9 44.3 L71.1 40.8 L73.4 37.8 L75.6 35.6 L77.8 34.3 L80.0 33.8 L82.2 34.3 L84.4 35.6 L86.6 37.8 L88.9 40.8 L91.1 44.3 L93.3 48.2 L95.5 52.3 L97.7 56.5 L99.9 60.6 L102.1 64.3 L104.4 67.7 L106.6 70.6 L108.8 72.9 L111.0 74.6 L113.2 75.7 L115.4 76.3 L117.6 76.4 L119.8 76.0 L122.1 75.3 L124.3 74.3 L126.5 73.2 L128.7 71.9 L130.9 70.6 L133.1 69.2 L135.3 68.0 L137.6 66.8 L139.8 65.7 L142.0 64.7 L144.2 63.9 L146.4 63.2" fill="none" stroke="url(#hatRidge)" stroke-width="1.34" stroke-opacity="0.69" stroke-linejoin="round" stroke-linecap="round"/>
    <path d="M12.9 68.9 L15.1 69.6 L17.4 70.4 L19.6 71.4 L21.8 72.6 L24.1 73.8 L26.3 75.1 L28.6 76.4 L30.8 77.8 L33.0 79.1 L35.3 80.3 L37.5 81.2 L39.7 81.8 L42.0 82.1 L44.2 81.8 L46.5 80.9 L48.7 79.4 L50.9 77.2 L53.2 74.4 L55.4 70.8 L57.6 66.7 L59.9 62.1 L62.1 57.2 L64.3 52.2 L66.6 47.2 L68.8 42.5 L71.1 38.3 L73.3 34.8 L75.5 32.2 L77.8 30.6 L80.0 30.0 L82.2 30.6 L84.5 32.2 L86.7 34.8 L88.9 38.3 L91.2 42.5 L93.4 47.2 L95.7 52.2 L97.9 57.2 L100.1 62.1 L102.4 66.7 L104.6 70.8 L106.8 74.4 L109.1 77.2 L111.3 79.4 L113.6 80.9 L115.8 81.8 L118.0 82.1 L120.3 81.8 L122.5 81.2 L124.7 80.3 L127.0 79.1 L129.2 77.8 L131.4 76.4 L133.7 75.1 L135.9 73.8 L138.2 72.6 L140.4 71.4 L142.6 70.4 L144.9 69.6 L147.1 68.9 L147.1 68.9 L146.8 72.7 L145.8 76.6 L144.2 80.4 L142.0 84.0 L139.2 87.5 L135.8 90.9 L131.9 94.0 L127.4 96.9 L122.6 99.5 L117.3 101.8 L111.6 103.8 L105.7 105.5 L99.5 106.8 L93.1 107.7 L86.6 108.3 L80.0 108.5 L73.4 108.3 L66.9 107.7 L60.5 106.8 L54.3 105.5 L48.4 103.8 L42.7 101.8 L37.4 99.5 L32.6 96.9 L28.1 94.0 L24.2 90.9 L20.8 87.5 L18.0 84.0 L15.8 80.4 L14.2 76.6 L13.2 72.7 L12.9 68.9 Z" fill="url(#hatBody)" stroke="none"/>
    <path d="M12.9 68.9 L15.1 69.6 L17.4 70.4 L19.6 71.4 L21.8 72.6 L24.1 73.8 L26.3 75.1 L28.6 76.4 L30.8 77.8 L33.0 79.1 L35.3 80.3 L37.5 81.2 L39.7 81.8 L42.0 82.1 L44.2 81.8 L46.5 80.9 L48.7 79.4 L50.9 77.2 L53.2 74.4 L55.4 70.8 L57.6 66.7 L59.9 62.1 L62.1 57.2 L64.3 52.2 L66.6 47.2 L68.8 42.5 L71.1 38.3 L73.3 34.8 L75.5 32.2 L77.8 30.6 L80.0 30.0 L82.2 30.6 L84.5 32.2 L86.7 34.8 L88.9 38.3 L91.2 42.5 L93.4 47.2 L95.7 52.2 L97.9 57.2 L100.1 62.1 L102.4 66.7 L104.6 70.8 L106.8 74.4 L109.1 77.2 L111.3 79.4 L113.6 80.9 L115.8 81.8 L118.0 82.1 L120.3 81.8 L122.5 81.2 L124.7 80.3 L127.0 79.1 L129.2 77.8 L131.4 76.4 L133.7 75.1 L135.9 73.8 L138.2 72.6 L140.4 71.4 L142.6 70.4 L144.9 69.6 L147.1 68.9" fill="none" stroke="url(#hatRidge)" stroke-width="1.40" stroke-opacity="0.73" stroke-linejoin="round" stroke-linecap="round"/>
    <path d="M13.6 74.5 L15.8 75.2 L18.0 76.1 L20.2 77.0 L22.4 78.1 L24.7 79.3 L26.9 80.6 L29.1 81.9 L31.3 83.2 L33.5 84.5 L35.7 85.7 L37.9 86.6 L40.2 87.3 L42.4 87.7 L44.6 87.6 L46.8 87.0 L49.0 85.9 L51.2 84.2 L53.4 81.9 L55.6 79.0 L57.9 75.7 L60.1 71.9 L62.3 67.8 L64.5 63.6 L66.7 59.5 L68.9 55.6 L71.1 52.1 L73.4 49.2 L75.6 47.0 L77.8 45.6 L80.0 45.1 L82.2 45.6 L84.4 47.0 L86.6 49.2 L88.9 52.1 L91.1 55.6 L93.3 59.5 L95.5 63.6 L97.7 67.8 L99.9 71.9 L102.1 75.7 L104.4 79.0 L106.6 81.9 L108.8 84.2 L111.0 85.9 L113.2 87.0 L115.4 87.6 L117.6 87.7 L119.8 87.3 L122.1 86.6 L124.3 85.7 L126.5 84.5 L128.7 83.2 L130.9 81.9 L133.1 80.6 L135.3 79.3 L137.6 78.1 L139.8 77.0 L142.0 76.1 L144.2 75.2 L146.4 74.5 L146.4 74.5 L145.3 78.0 L143.7 81.4 L141.5 84.7 L138.9 87.9 L135.8 90.9 L132.2 93.7 L128.3 96.4 L123.9 98.8 L119.2 101.0 L114.2 103.0 L108.9 104.6 L103.4 106.0 L97.7 107.1 L91.9 107.9 L86.0 108.3 L80.0 108.5 L74.0 108.3 L68.1 107.9 L62.3 107.1 L56.6 106.0 L51.1 104.6 L45.8 103.0 L40.8 101.0 L36.1 98.8 L31.7 96.4 L27.8 93.7 L24.2 90.9 L21.1 87.9 L18.5 84.7 L16.3 81.4 L14.7 78.0 L13.6 74.5 Z" fill="url(#hatBody)" stroke="none"/>
    <path d="M13.6 74.5 L15.8 75.2 L18.0 76.1 L20.2 77.0 L22.4 78.1 L24.7 79.3 L26.9 80.6 L29.1 81.9 L31.3 83.2 L33.5 84.5 L35.7 85.7 L37.9 86.6 L40.2 87.3 L42.4 87.7 L44.6 87.6 L46.8 87.0 L49.0 85.9 L51.2 84.2 L53.4 81.9 L55.6 79.0 L57.9 75.7 L60.1 71.9 L62.3 67.8 L64.5 63.6 L66.7 59.5 L68.9 55.6 L71.1 52.1 L73.4 49.2 L75.6 47.0 L77.8 45.6 L80.0 45.1 L82.2 45.6 L84.4 47.0 L86.6 49.2 L88.9 52.1 L91.1 55.6 L93.3 59.5 L95.5 63.6 L97.7 67.8 L99.9 71.9 L102.1 75.7 L104.4 79.0 L106.6 81.9 L108.8 84.2 L111.0 85.9 L113.2 87.0 L115.4 87.6 L117.6 87.7 L119.8 87.3 L122.1 86.6 L124.3 85.7 L126.5 84.5 L128.7 83.2 L130.9 81.9 L133.1 80.6 L135.3 79.3 L137.6 78.1 L139.8 77.0 L142.0 76.1 L144.2 75.2 L146.4 74.5" fill="none" stroke="url(#hatRidge)" stroke-width="1.46" stroke-opacity="0.76" stroke-linejoin="round" stroke-linecap="round"/>
    <path d="M15.7 80.2 L17.8 80.9 L20.0 81.6 L22.1 82.5 L24.3 83.5 L26.4 84.5 L28.6 85.7 L30.7 86.9 L32.8 88.1 L35.0 89.3 L37.1 90.4 L39.3 91.5 L41.4 92.3 L43.6 93.0 L45.7 93.3 L47.8 93.4 L50.0 93.1 L52.1 92.4 L54.3 91.3 L56.4 89.9 L58.6 88.2 L60.7 86.2 L62.9 84.0 L65.0 81.7 L67.1 79.4 L69.3 77.3 L71.4 75.3 L73.6 73.7 L75.7 72.4 L77.9 71.7 L80.0 71.4 L82.1 71.7 L84.3 72.4 L86.4 73.7 L88.6 75.3 L90.7 77.3 L92.9 79.4 L95.0 81.7 L97.1 84.0 L99.3 86.2 L101.4 88.2 L103.6 89.9 L105.7 91.3 L107.9 92.4 L110.0 93.1 L112.2 93.4 L114.3 93.3 L116.4 93.0 L118.6 92.3 L120.7 91.5 L122.9 90.4 L125.0 89.3 L127.2 88.1 L129.3 86.9 L131.4 85.7 L133.6 84.5 L135.7 83.5 L137.9 82.5 L140.0 81.6 L142.2 80.9 L144.3 80.2 L144.3 80.2 L142.6 83.2 L140.4 86.1 L137.9 88.9 L135.0 91.6 L131.7 94.1 L128.2 96.5 L124.3 98.6 L120.1 100.6 L115.7 102.4 L111.0 104.0 L106.2 105.4 L101.1 106.5 L96.0 107.4 L90.7 108.0 L85.4 108.4 L80.0 108.5 L74.6 108.4 L69.3 108.0 L64.0 107.4 L58.9 106.5 L53.8 105.4 L49.0 104.0 L44.3 102.4 L39.9 100.6 L35.7 98.6 L31.8 96.5 L28.3 94.1 L25.0 91.6 L22.1 88.9 L19.6 86.1 L17.4 83.2 L15.7 80.2 Z" fill="url(#hatBody)" stroke="none"/>
    <path d="M15.7 80.2 L17.8 80.9 L20.0 81.6 L22.1 82.5 L24.3 83.5 L26.4 84.5 L28.6 85.7 L30.7 86.9 L32.8 88.1 L35.0 89.3 L37.1 90.4 L39.3 91.5 L41.4 92.3 L43.6 93.0 L45.7 93.3 L47.8 93.4 L50.0 93.1 L52.1 92.4 L54.3 91.3 L56.4 89.9 L58.6 88.2 L60.7 86.2 L62.9 84.0 L65.0 81.7 L67.1 79.4 L69.3 77.3 L71.4 75.3 L73.6 73.7 L75.7 72.4 L77.9 71.7 L80.0 71.4 L82.1 71.7 L84.3 72.4 L86.4 73.7 L88.6 75.3 L90.7 77.3 L92.9 79.4 L95.0 81.7 L97.1 84.0 L99.3 86.2 L101.4 88.2 L103.6 89.9 L105.7 91.3 L107.9 92.4 L110.0 93.1 L112.2 93.4 L114.3 93.3 L116.4 93.0 L118.6 92.3 L120.7 91.5 L122.9 90.4 L125.0 89.3 L127.2 88.1 L129.3 86.9 L131.4 85.7 L133.6 84.5 L135.7 83.5 L137.9 82.5 L140.0 81.6 L142.2 80.9 L144.3 80.2" fill="none" stroke="url(#hatRidge)" stroke-width="1.51" stroke-opacity="0.80" stroke-linejoin="round" stroke-linecap="round"/>
    <path d="M19.4 85.8 L21.4 86.4 L23.4 87.1 L25.4 87.8 L27.5 88.7 L29.5 89.6 L31.5 90.5 L33.5 91.5 L35.5 92.5 L37.6 93.6 L39.6 94.6 L41.6 95.5 L43.6 96.4 L45.6 97.2 L47.7 97.9 L49.7 98.5 L51.7 98.8 L53.7 99.0 L55.7 99.0 L57.8 98.9 L59.8 98.6 L61.8 98.1 L63.8 97.6 L65.9 97.0 L67.9 96.3 L69.9 95.7 L71.9 95.1 L73.9 94.6 L76.0 94.2 L78.0 93.9 L80.0 93.8 L82.0 93.9 L84.0 94.2 L86.1 94.6 L88.1 95.1 L90.1 95.7 L92.1 96.3 L94.1 97.0 L96.2 97.6 L98.2 98.1 L100.2 98.6 L102.2 98.9 L104.3 99.0 L106.3 99.0 L108.3 98.8 L110.3 98.5 L112.3 97.9 L114.4 97.2 L116.4 96.4 L118.4 95.5 L120.4 94.6 L122.4 93.6 L124.5 92.5 L126.5 91.5 L128.5 90.5 L130.5 89.6 L132.5 88.7 L134.6 87.8 L136.6 87.1 L138.6 86.4 L140.6 85.8 L140.6 85.8 L138.4 88.3 L136.0 90.7 L133.2 93.0 L130.2 95.1 L127.0 97.2 L123.5 99.1 L119.8 100.8 L115.9 102.4 L111.8 103.8 L107.5 105.0 L103.2 106.1 L98.7 106.9 L94.1 107.6 L89.4 108.1 L84.7 108.4 L80.0 108.5 L75.3 108.4 L70.6 108.1 L65.9 107.6 L61.3 106.9 L56.8 106.1 L52.5 105.0 L48.2 103.8 L44.1 102.4 L40.2 100.8 L36.5 99.1 L33.0 97.2 L29.8 95.1 L26.8 93.0 L24.0 90.7 L21.6 88.3 L19.4 85.8 Z" fill="url(#hatBody)" stroke="none"/>
    <path d="M19.4 85.8 L21.4 86.4 L23.4 87.1 L25.4 87.8 L27.5 88.7 L29.5 89.6 L31.5 90.5 L33.5 91.5 L35.5 92.5 L37.6 93.6 L39.6 94.6 L41.6 95.5 L43.6 96.4 L45.6 97.2 L47.7 97.9 L49.7 98.5 L51.7 98.8 L53.7 99.0 L55.7 99.0 L57.8 98.9 L59.8 98.6 L61.8 98.1 L63.8 97.6 L65.9 97.0 L67.9 96.3 L69.9 95.7 L71.9 95.1 L73.9 94.6 L76.0 94.2 L78.0 93.9 L80.0 93.8 L82.0 93.9 L84.0 94.2 L86.1 94.6 L88.1 95.1 L90.1 95.7 L92.1 96.3 L94.1 97.0 L96.2 97.6 L98.2 98.1 L100.2 98.6 L102.2 98.9 L104.3 99.0 L106.3 99.0 L108.3 98.8 L110.3 98.5 L112.3 97.9 L114.4 97.2 L116.4 96.4 L118.4 95.5 L120.4 94.6 L122.4 93.6 L124.5 92.5 L126.5 91.5 L128.5 90.5 L130.5 89.6 L132.5 88.7 L134.6 87.8 L136.6 87.1 L138.6 86.4 L140.6 85.8" fill="none" stroke="url(#hatRidge)" stroke-width="1.57" stroke-opacity="0.84" stroke-linejoin="round" stroke-linecap="round"/>
    <path d="M24.9 91.5 L26.8 92.0 L28.6 92.5 L30.4 93.1 L32.3 93.7 L34.1 94.4 L35.9 95.1 L37.8 95.8 L39.6 96.6 L41.5 97.3 L43.3 98.1 L45.1 98.9 L47.0 99.6 L48.8 100.3 L50.6 101.0 L52.5 101.6 L54.3 102.2 L56.1 102.7 L58.0 103.2 L59.8 103.6 L61.6 103.9 L63.5 104.1 L65.3 104.3 L67.2 104.5 L69.0 104.6 L70.8 104.6 L72.7 104.7 L74.5 104.7 L76.3 104.7 L78.2 104.7 L80.0 104.7 L81.8 104.7 L83.7 104.7 L85.5 104.7 L87.3 104.7 L89.2 104.6 L91.0 104.6 L92.8 104.5 L94.7 104.3 L96.5 104.1 L98.4 103.9 L100.2 103.6 L102.0 103.2 L103.9 102.7 L105.7 102.2 L107.5 101.6 L109.4 101.0 L111.2 100.3 L113.0 99.6 L114.9 98.9 L116.7 98.1 L118.5 97.3 L120.4 96.6 L122.2 95.8 L124.1 95.1 L125.9 94.4 L127.7 93.7 L129.6 93.1 L131.4 92.5 L133.2 92.0 L135.1 91.5 L135.1 91.5 L132.7 93.4 L130.1 95.3 L127.3 97.0 L124.3 98.6 L121.2 100.1 L118.0 101.5 L114.6 102.8 L111.1 104.0 L107.4 105.0 L103.7 105.9 L99.9 106.7 L96.0 107.4 L92.0 107.9 L88.1 108.2 L84.0 108.4 L80.0 108.5 L76.0 108.4 L71.9 108.2 L68.0 107.9 L64.0 107.4 L60.1 106.7 L56.3 105.9 L52.6 105.0 L48.9 104.0 L45.4 102.8 L42.0 101.5 L38.8 100.1 L35.7 98.6 L32.7 97.0 L29.9 95.3 L27.3 93.4 L24.9 91.5 Z" fill="url(#hatBody)" stroke="none"/>
    <path d="M24.9 91.5 L26.8 92.0 L28.6 92.5 L30.4 93.1 L32.3 93.7 L34.1 94.4 L35.9 95.1 L37.8 95.8 L39.6 96.6 L41.5 97.3 L43.3 98.1 L45.1 98.9 L47.0 99.6 L48.8 100.3 L50.6 101.0 L52.5 101.6 L54.3 102.2 L56.1 102.7 L58.0 103.2 L59.8 103.6 L61.6 103.9 L63.5 104.1 L65.3 104.3 L67.2 104.5 L69.0 104.6 L70.8 104.6 L72.7 104.7 L74.5 104.7 L76.3 104.7 L78.2 104.7 L80.0 104.7 L81.8 104.7 L83.7 104.7 L85.5 104.7 L87.3 104.7 L89.2 104.6 L91.0 104.6 L92.8 104.5 L94.7 104.3 L96.5 104.1 L98.4 103.9 L100.2 103.6 L102.0 103.2 L103.9 102.7 L105.7 102.2 L107.5 101.6 L109.4 101.0 L111.2 100.3 L113.0 99.6 L114.9 98.9 L116.7 98.1 L118.5 97.3 L120.4 96.6 L122.2 95.8 L124.1 95.1 L125.9 94.4 L127.7 93.7 L129.6 93.1 L131.4 92.5 L133.2 92.0 L135.1 91.5" fill="none" stroke="url(#hatRidge)" stroke-width="1.63" stroke-opacity="0.88" stroke-linejoin="round" stroke-linecap="round"/>
    <path d="M33.0 97.2 L34.6 97.5 L36.2 97.9 L37.7 98.3 L39.3 98.7 L40.9 99.1 L42.4 99.5 L44.0 100.0 L45.6 100.4 L47.1 100.9 L48.7 101.4 L50.3 101.8 L51.8 102.3 L53.4 102.7 L55.0 103.2 L56.5 103.6 L58.1 104.0 L59.7 104.4 L61.2 104.7 L62.8 105.1 L64.3 105.4 L65.9 105.7 L67.5 105.9 L69.0 106.2 L70.6 106.4 L72.2 106.5 L73.7 106.7 L75.3 106.8 L76.9 106.8 L78.4 106.9 L80.0 106.9 L81.6 106.9 L83.1 106.8 L84.7 106.8 L86.3 106.7 L87.8 106.5 L89.4 106.4 L91.0 106.2 L92.5 105.9 L94.1 105.7 L95.7 105.4 L97.2 105.1 L98.8 104.7 L100.3 104.4 L101.9 104.0 L103.5 103.6 L105.0 103.2 L106.6 102.7 L108.2 102.3 L109.7 101.8 L111.3 101.4 L112.9 100.9 L114.4 100.4 L116.0 100.0 L117.6 99.5 L119.1 99.1 L120.7 98.7 L122.3 98.3 L123.8 97.9 L125.4 97.5 L127.0 97.2 L127.0 97.2 L124.6 98.5 L122.1 99.7 L119.5 100.9 L116.9 102.0 L114.1 103.0 L111.3 103.9 L108.3 104.8 L105.4 105.6 L102.3 106.2 L99.2 106.8 L96.1 107.3 L92.9 107.8 L89.7 108.1 L86.5 108.3 L83.2 108.5 L80.0 108.5 L76.8 108.5 L73.5 108.3 L70.3 108.1 L67.1 107.8 L63.9 107.3 L60.8 106.8 L57.7 106.2 L54.6 105.6 L51.7 104.8 L48.7 103.9 L45.9 103.0 L43.1 102.0 L40.5 100.9 L37.9 99.7 L35.4 98.5 L33.0 97.2 Z" fill="url(#hatBody)" stroke="none"/>
    <path d="M33.0 97.2 L34.6 97.5 L36.2 97.9 L37.7 98.3 L39.3 98.7 L40.9 99.1 L42.4 99.5 L44.0 100.0 L45.6 100.4 L47.1 100.9 L48.7 101.4 L50.3 101.8 L51.8 102.3 L53.4 102.7 L55.0 103.2 L56.5 103.6 L58.1 104.0 L59.7 104.4 L61.2 104.7 L62.8 105.1 L64.3 105.4 L65.9 105.7 L67.5 105.9 L69.0 106.2 L70.6 106.4 L72.2 106.5 L73.7 106.7 L75.3 106.8 L76.9 106.8 L78.4 106.9 L80.0 106.9 L81.6 106.9 L83.1 106.8 L84.7 106.8 L86.3 106.7 L87.8 106.5 L89.4 106.4 L91.0 106.2 L92.5 105.9 L94.1 105.7 L95.7 105.4 L97.2 105.1 L98.8 104.7 L100.3 104.4 L101.9 104.0 L103.5 103.6 L105.0 103.2 L106.6 102.7 L108.2 102.3 L109.7 101.8 L111.3 101.4 L112.9 100.9 L114.4 100.4 L116.0 100.0 L117.6 99.5 L119.1 99.1 L120.7 98.7 L122.3 98.3 L123.8 97.9 L125.4 97.5 L127.0 97.2" fill="none" stroke="url(#hatRidge)" stroke-width="1.69" stroke-opacity="0.92" stroke-linejoin="round" stroke-linecap="round"/>
    <path d="M45.4 102.8 L46.6 103.0 L47.7 103.2 L48.9 103.4 L50.0 103.6 L51.2 103.8 L52.4 104.0 L53.5 104.2 L54.7 104.3 L55.8 104.5 L57.0 104.7 L58.1 104.9 L59.3 105.1 L60.4 105.3 L61.6 105.4 L62.7 105.6 L63.9 105.7 L65.0 105.9 L66.2 106.0 L67.3 106.2 L68.5 106.3 L69.6 106.4 L70.8 106.5 L71.9 106.6 L73.1 106.7 L74.2 106.7 L75.4 106.8 L76.5 106.8 L77.7 106.9 L78.8 106.9 L80.0 106.9 L81.2 106.9 L82.3 106.9 L83.5 106.8 L84.6 106.8 L85.8 106.7 L86.9 106.7 L88.1 106.6 L89.2 106.5 L90.4 106.4 L91.5 106.3 L92.7 106.2 L93.8 106.0 L95.0 105.9 L96.1 105.7 L97.3 105.6 L98.4 105.4 L99.6 105.3 L100.7 105.1 L101.9 104.9 L103.0 104.7 L104.2 104.5 L105.3 104.3 L106.5 104.2 L107.6 104.0 L108.8 103.8 L110.0 103.6 L111.1 103.4 L112.3 103.2 L113.4 103.0 L114.6 102.8 L114.6 102.8 L112.6 103.5 L110.6 104.1 L108.6 104.7 L106.5 105.3 L104.4 105.8 L102.3 106.3 L100.1 106.7 L97.9 107.1 L95.7 107.4 L93.5 107.7 L91.3 107.9 L89.0 108.1 L86.8 108.3 L84.5 108.4 L82.3 108.5 L80.0 108.5 L77.7 108.5 L75.5 108.4 L73.2 108.3 L71.0 108.1 L68.7 107.9 L66.5 107.7 L64.3 107.4 L62.1 107.1 L59.9 106.7 L57.7 106.3 L55.6 105.8 L53.5 105.3 L51.4 104.7 L49.4 104.1 L47.4 103.5 L45.4 102.8 Z" fill="url(#hatBody)" stroke="none"/>
    <path d="M45.4 102.8 L46.6 103.0 L47.7 103.2 L48.9 103.4 L50.0 103.6 L51.2 103.8 L52.4 104.0 L53.5 104.2 L54.7 104.3 L55.8 104.5 L57.0 104.7 L58.1 104.9 L59.3 105.1 L60.4 105.3 L61.6 105.4 L62.7 105.6 L63.9 105.7 L65.0 105.9 L66.2 106.0 L67.3 106.2 L68.5 106.3 L69.6 106.4 L70.8 106.5 L71.9 106.6 L73.1 106.7 L74.2 106.7 L75.4 106.8 L76.5 106.8 L77.7 106.9 L78.8 106.9 L80.0 106.9 L81.2 106.9 L82.3 106.9 L83.5 106.8 L84.6 106.8 L85.8 106.7 L86.9 106.7 L88.1 106.6 L89.2 106.5 L90.4 106.4 L91.5 106.3 L92.7 106.2 L93.8 106.0 L95.0 105.9 L96.1 105.7 L97.3 105.6 L98.4 105.4 L99.6 105.3 L100.7 105.1 L101.9 104.9 L103.0 104.7 L104.2 104.5 L105.3 104.3 L106.5 104.2 L107.6 104.0 L108.8 103.8 L110.0 103.6 L111.1 103.4 L112.3 103.2 L113.4 103.0 L114.6 102.8" fill="none" stroke="url(#hatRidge)" stroke-width="1.74" stroke-opacity="0.96" stroke-linejoin="round" stroke-linecap="round"/>
    <path d="M146.9 65.7 L147.1 68.5 L147.0 71.3 L146.5 74.0 L145.7 76.8 L144.6 79.5 L143.2 82.1 L141.5 84.7 L139.5 87.2 L137.1 89.7 L134.5 92.0 L131.6 94.2 L128.5 96.3 L125.1 98.2 L121.5 100.0 L117.7 101.6 L113.7 103.1 L109.6 104.4 L105.3 105.6 L100.9 106.5 L96.3 107.3 L91.7 107.9 L87.1 108.3 L82.4 108.5 L77.6 108.5 L72.9 108.3 L68.3 107.9 L63.7 107.3 L59.1 106.5 L54.7 105.6 L50.4 104.4 L46.3 103.1 L42.3 101.6 L38.5 100.0 L34.9 98.2 L31.5 96.3 L28.4 94.2 L25.5 92.0 L22.9 89.7 L20.5 87.2 L18.5 84.7 L16.8 82.1 L15.4 79.5 L14.3 76.8 L13.5 74.0 L13.0 71.3 L12.9 68.5 L13.1 65.7" fill="none" stroke="url(#hatRidge)" stroke-width="2.2" stroke-opacity="1" stroke-linecap="round"/>
  </g>
</svg>
