<?xml version="1.0" encoding="UTF-8"?>
<!-- Gonzalez hero: the sombrero-function logo (z = (1 - r^2) * exp(-r^2/2),
     a mathematically defined Mexican hat - see gonzalez-logo.svg) with an
     animated push-parsing data flow: raw bytes stream in from the left,
     parse events stream out to the right, without the hat ever blocking. -->
<svg xmlns="http://www.w3.org/2000/svg" viewBox="0 0 800 400" width="100vw">
  <defs>
    <linearGradient id="bgGrad" x1="0%" y1="0%" x2="100%" y2="100%">
      <stop offset="0%" style="stop-color:#0a0a12"/>
      <stop offset="50%" style="stop-color:#12121f"/>
      <stop offset="100%" style="stop-color:#0d0d18"/>
    </linearGradient>

    <linearGradient id="hatRidge" x1="0%" y1="0%" x2="100%" y2="0%">
      <stop offset="0%" style="stop-color:#7a4a12"/>
      <stop offset="35%" style="stop-color:#e8a33d"/>
      <stop offset="50%" style="stop-color:#ffd57a"/>
      <stop offset="65%" style="stop-color:#e8a33d"/>
      <stop offset="100%" style="stop-color:#7a4a12"/>
    </linearGradient>
    <linearGradient id="hatBody" gradientUnits="userSpaceOnUse" x1="0" y1="132.0" x2="0" y2="234.3">
      <stop offset="0%" style="stop-color:#2a1705"/>
      <stop offset="100%" style="stop-color:#140a02"/>
    </linearGradient>

    <linearGradient id="streamIn" x1="0%" y1="0%" x2="100%" y2="0%">
      <stop offset="0%" style="stop-color:#8a97b8;stop-opacity:0"/>
      <stop offset="100%" style="stop-color:#8a97b8;stop-opacity:0.7"/>
    </linearGradient>
    <linearGradient id="streamOut" x1="0%" y1="0%" x2="100%" y2="0%">
      <stop offset="0%" style="stop-color:#ffd57a;stop-opacity:0.8"/>
      <stop offset="100%" style="stop-color:#ffd57a;stop-opacity:0"/>
    </linearGradient>

    <filter id="glow" x="-50%" y="-50%" width="200%" height="200%">
      <feGaussianBlur stdDeviation="3" result="coloredBlur"/>
      <feMerge>
        <feMergeNode in="coloredBlur"/>
        <feMergeNode in="SourceGraphic"/>
      </feMerge>
    </filter>
    <filter id="textGlow" x="-20%" y="-20%" width="140%" height="140%">
      <feGaussianBlur stdDeviation="2" result="coloredBlur"/>
      <feMerge>
        <feMergeNode in="coloredBlur"/>
        <feMergeNode in="SourceGraphic"/>
      </feMerge>
    </filter>
    <filter id="logoShadow" x="-20%" y="-20%" width="140%" height="140%">
      <feDropShadow dx="0" dy="4" stdDeviation="6" flood-color="#000000" flood-opacity="0.5"/>
    </filter>
  </defs>

  <style>
    @keyframes float {
      0%, 100% { transform: translate(0px, 0px); }
      50% { transform: translate(0px, -8px); }
    }
    @keyframes shimmer {
      0% { opacity: 0.3; }
      50% { opacity: 0.8; }
      100% { opacity: 0.3; }
    }
    @keyframes byteIn {
      0%   { opacity: 0; transform: translateX(0px); }
      15%  { opacity: 0.9; }
      75%  { opacity: 0.9; }
      100% { opacity: 0; transform: translateX(105px); }
    }
    @keyframes eventOut {
      0%   { opacity: 0; transform: translateX(0px); }
      20%  { opacity: 1; }
      80%  { opacity: 1; }
      100% { opacity: 0; transform: translateX(110px); }
    }
    @keyframes dashFlow {
      from { stroke-dashoffset: 24; }
      to   { stroke-dashoffset: 0; }
    }
    @keyframes fadeSlide {
      0%, 100% { opacity: 0.4; transform: translateX(-5px); }
      50% { opacity: 1; transform: translateX(5px); }
    }

    .logo-float { animation: float 5s ease-in-out infinite; }
    .shimmer { animation: shimmer 2.5s ease-in-out infinite; }
    .byte { opacity: 0; animation: byteIn 4s linear infinite; }
    .event { opacity: 0; animation: eventOut 4s linear infinite; }
    .flowline { animation: dashFlow 1.2s linear infinite; }
    .fade-slide { animation: fadeSlide 4s ease-in-out infinite; }

    .title-text {
      font-family: 'Segoe UI', system-ui, sans-serif;
      font-size: 48px; font-weight: 700; fill: white; letter-spacing: -1px;
    }
    .subtitle-text {
      font-family: 'Segoe UI', system-ui, sans-serif;
      font-size: 14px; fill: #a0a0b0; letter-spacing: 0.5px;
    }
    .feature-text {
      font-family: 'Segoe UI', system-ui, sans-serif;
      font-size: 11px; font-weight: 600; fill: #e0e0e0;
      text-transform: uppercase; letter-spacing: 1.2px;
    }
    .mono {
      font-family: 'Consolas', 'Monaco', monospace;
      font-size: 10px; font-weight: 500;
    }
    .byte-text { fill: #8a97b8; }
    .event-text { fill: #ffd57a; }
    .stat-text {
      font-family: 'Segoe UI', system-ui, sans-serif;
      font-size: 11px; fill: #a0a0b0; letter-spacing: 0.5px;
    }
    .stat-strong { fill: #ffd57a; font-weight: 600; }
  </style>

  <!-- Background -->
  <rect width="800" height="400" fill="url(#bgGrad)"/>
  <g opacity="0.03">
    <pattern id="grid" width="40" height="40" patternUnits="userSpaceOnUse">
      <path d="M 40 0 L 0 0 0 40" fill="none" stroke="#ffffff" stroke-width="0.5"/>
    </pattern>
    <rect width="800" height="400" fill="url(#grid)"/>
  </g>

  <!-- ===== Left: push-parsing data flow through the sombrero ===== -->

  <!-- Inbound byte lane (raw ByteBuffer chunks) -->
  <g>
    <line x1="15" y1="185.0" x2="95.0" y2="185.0"
          stroke="url(#streamIn)" stroke-width="1" stroke-dasharray="4 8"
          class="flowline" opacity="0.5"/>
    <!-- Same cadence, three vertical rows so in-flight chunks never
         overwrite each other -->
    <g class="byte" style="animation-delay: 0s;">
      <text x="18" y="158.0" class="mono byte-text">3C 3F 78 6D 6C</text>
    </g>
    <g class="byte" style="animation-delay: 1.3s;">
      <text x="18" y="179.0" class="mono byte-text">3C 64 6F 63 3E</text>
    </g>
    <g class="byte" style="animation-delay: 2.6s;">
      <text x="18" y="200.0" class="mono byte-text">73 70 65 65 64</text>
    </g>
  </g>

  <!-- Outbound event lane -->
  <g>
    <line x1="285.0" y1="185.0" x2="378" y2="185.0"
          stroke="url(#streamOut)" stroke-width="1" stroke-dasharray="4 8"
          class="flowline" opacity="0.6"/>
    <!-- Same cadence, three vertical rows - see the byte lane -->
    <g class="event" style="animation-delay: 0.4s;">
      <text x="278.0" y="158.0" class="mono event-text" filter="url(#textGlow)">startElement</text>
    </g>
    <g class="event" style="animation-delay: 1.7s;">
      <text x="278.0" y="179.0" class="mono event-text" filter="url(#textGlow)">characters</text>
    </g>
    <g class="event" style="animation-delay: 3.0s;">
      <text x="278.0" y="200.0" class="mono event-text" filter="url(#textGlow)">endElement</text>
    </g>
  </g>

  <!-- THE SOMBRERO - hidden-line plot of z = (1 - r^2) * exp(-r^2/2) -->
  <g class="logo-float" filter="url(#logoShadow)" style="transform-origin: 190.0px 175.0px;">
    <g>
      <path d="M149.2 137.9 L150.5 138.1 L151.9 138.3 L153.2 138.5 L154.6 138.8 L156.0 139.0 L157.3 139.2 L158.7 139.5 L160.0 139.7 L161.4 139.9 L162.8 140.1 L164.1 140.3 L165.5 140.6 L166.9 140.8 L168.2 141.0 L169.6 141.2 L170.9 141.3 L172.3 141.5 L173.7 141.7 L175.0 141.8 L176.4 142.0 L177.7 142.1 L179.1 142.2 L180.5 142.4 L181.8 142.4 L183.2 142.5 L184.6 142.6 L185.9 142.6 L187.3 142.7 L188.6 142.7 L190.0 142.7 L191.4 142.7 L192.7 142.7 L194.1 142.6 L195.4 142.6 L196.8 142.5 L198.2 142.4 L199.5 142.4 L200.9 142.2 L202.3 142.1 L203.6 142.0 L205.0 141.8 L206.3 141.7 L207.7 141.5 L209.1 141.3 L210.4 141.2 L211.8 141.0 L213.1 140.8 L214.5 140.6 L215.9 140.3 L217.2 140.1 L218.6 139.9 L220.0 139.7 L221.3 139.5 L222.7 139.2 L224.0 139.0 L225.4 138.8 L226.8 138.5 L228.1 138.3 L229.5 138.1 L230.8 137.9 L230.8 137.9 L241.3 142.4 L250.4 147.8 L257.9 154.0 L263.7 160.9 L267.4 168.2 L269.2 175.8 L268.8 183.5 L266.4 191.0 L262.0 198.2 L255.6 204.9 L247.6 210.9 L238.0 216.0 L227.2 220.2 L215.3 223.2 L202.8 225.1 L190.0 225.7 L177.2 225.1 L164.7 223.2 L152.8 220.2 L142.0 216.0 L132.4 210.9 L124.4 204.9 L118.0 198.2 L113.6 191.0 L111.2 183.5 L110.8 175.8 L112.6 168.2 L116.3 160.9 L122.1 154.0 L129.6 147.8 L138.7 142.4 L149.2 137.9 Z" fill="url(#hatBody)" stroke="none"/>
      <path d="M149.2 137.9 L150.5 138.1 L151.9 138.3 L153.2 138.5 L154.6 138.8 L156.0 139.0 L157.3 139.2 L158.7 139.5 L160.0 139.7 L161.4 139.9 L162.8 140.1 L164.1 140.3 L165.5 140.6 L166.9 140.8 L168.2 141.0 L169.6 141.2 L170.9 141.3 L172.3 141.5 L173.7 141.7 L175.0 141.8 L176.4 142.0 L177.7 142.1 L179.1 142.2 L180.5 142.4 L181.8 142.4 L183.2 142.5 L184.6 142.6 L185.9 142.6 L187.3 142.7 L188.6 142.7 L190.0 142.7 L191.4 142.7 L192.7 142.7 L194.1 142.6 L195.4 142.6 L196.8 142.5 L198.2 142.4 L199.5 142.4 L200.9 142.2 L202.3 142.1 L203.6 142.0 L205.0 141.8 L206.3 141.7 L207.7 141.5 L209.1 141.3 L210.4 141.2 L211.8 141.0 L213.1 140.8 L214.5 140.6 L215.9 140.3 L217.2 140.1 L218.6 139.9 L220.0 139.7 L221.3 139.5 L222.7 139.2 L224.0 139.0 L225.4 138.8 L226.8 138.5 L228.1 138.3 L229.5 138.1 L230.8 137.9" fill="none" stroke="url(#hatRidge)" stroke-width="1.06" stroke-opacity="0.49" stroke-linejoin="round" stroke-linecap="round"/>
      <path d="M134.5 144.6 L136.4 145.0 L138.2 145.5 L140.1 145.9 L141.9 146.4 L143.8 146.9 L145.6 147.4 L147.5 148.0 L149.3 148.5 L151.2 149.1 L153.0 149.6 L154.9 150.2 L156.7 150.7 L158.6 151.3 L160.4 151.8 L162.3 152.3 L164.1 152.8 L166.0 153.3 L167.8 153.7 L169.7 154.1 L171.5 154.5 L173.4 154.8 L175.2 155.1 L177.1 155.4 L178.9 155.6 L180.8 155.8 L182.6 156.0 L184.5 156.1 L186.3 156.2 L188.2 156.2 L190.0 156.2 L191.8 156.2 L193.7 156.2 L195.5 156.1 L197.4 156.0 L199.2 155.8 L201.1 155.6 L202.9 155.4 L204.8 155.1 L206.6 154.8 L208.5 154.5 L210.3 154.1 L212.2 153.7 L214.0 153.3 L215.9 152.8 L217.7 152.3 L219.6 151.8 L221.4 151.3 L223.3 150.7 L225.1 150.2 L227.0 149.6 L228.8 149.1 L230.7 148.5 L232.5 148.0 L234.4 147.4 L236.2 146.9 L238.1 146.4 L239.9 145.9 L241.8 145.5 L243.6 145.0 L245.5 144.6 L245.5 144.6 L253.2 149.9 L259.6 155.8 L264.4 162.1 L267.7 168.8 L269.2 175.8 L269.0 182.7 L267.0 189.6 L263.4 196.3 L258.2 202.5 L251.5 208.3 L243.4 213.3 L234.2 217.6 L224.0 221.1 L213.1 223.6 L201.7 225.2 L190.0 225.7 L178.3 225.2 L166.9 223.6 L156.0 221.1 L145.8 217.6 L136.6 213.3 L128.5 208.3 L121.8 202.5 L116.6 196.3 L113.0 189.6 L111.0 182.7 L110.8 175.8 L112.3 168.8 L115.6 162.1 L120.4 155.8 L126.8 149.9 L134.5 144.6 Z" fill="url(#hatBody)" stroke="none"/>
      <path d="M134.5 144.6 L136.4 145.0 L138.2 145.5 L140.1 145.9 L141.9 146.4 L143.8 146.9 L145.6 147.4 L147.5 148.0 L149.3 148.5 L151.2 149.1 L153.0 149.6 L154.9 150.2 L156.7 150.7 L158.6 151.3 L160.4 151.8 L162.3 152.3 L164.1 152.8 L166.0 153.3 L167.8 153.7 L169.7 154.1 L171.5 154.5 L173.4 154.8 L175.2 155.1 L177.1 155.4 L178.9 155.6 L180.8 155.8 L182.6 156.0 L184.5 156.1 L186.3 156.2 L188.2 156.2 L190.0 156.2 L191.8 156.2 L193.7 156.2 L195.5 156.1 L197.4 156.0 L199.2 155.8 L201.1 155.6 L202.9 155.4 L204.8 155.1 L206.6 154.8 L208.5 154.5 L210.3 154.1 L212.2 153.7 L214.0 153.3 L215.9 152.8 L217.7 152.3 L219.6 151.8 L221.4 151.3 L223.3 150.7 L225.1 150.2 L227.0 149.6 L228.8 149.1 L230.7 148.5 L232.5 148.0 L234.4 147.4 L236.2 146.9 L238.1 146.4 L239.9 145.9 L241.8 145.5 L243.6 145.0 L245.5 144.6" fill="none" stroke="url(#hatRidge)" stroke-width="1.13" stroke-opacity="0.53" stroke-linejoin="round" stroke-linecap="round"/>
      <path d="M124.9 151.4 L127.1 152.0 L129.3 152.6 L131.4 153.3 L133.6 154.0 L135.8 154.8 L137.9 155.7 L140.1 156.5 L142.3 157.4 L144.4 158.3 L146.6 159.3 L148.8 160.2 L151.0 161.1 L153.1 161.9 L155.3 162.7 L157.5 163.5 L159.6 164.2 L161.8 164.8 L164.0 165.3 L166.1 165.8 L168.3 166.2 L170.5 166.5 L172.6 166.7 L174.8 166.9 L177.0 167.0 L179.2 167.1 L181.3 167.1 L183.5 167.2 L185.7 167.2 L187.8 167.2 L190.0 167.2 L192.2 167.2 L194.3 167.2 L196.5 167.2 L198.7 167.1 L200.8 167.1 L203.0 167.0 L205.2 166.9 L207.4 166.7 L209.5 166.5 L211.7 166.2 L213.9 165.8 L216.0 165.3 L218.2 164.8 L220.4 164.2 L222.5 163.5 L224.7 162.7 L226.9 161.9 L229.0 161.1 L231.2 160.2 L233.4 159.3 L235.6 158.3 L237.7 157.4 L239.9 156.5 L242.1 155.7 L244.2 154.8 L246.4 154.0 L248.6 153.3 L250.7 152.6 L252.9 152.0 L255.1 151.4 L255.1 151.4 L260.6 156.9 L264.9 162.8 L267.7 169.0 L269.1 175.4 L269.1 181.8 L267.6 188.2 L264.6 194.4 L260.3 200.3 L254.7 205.8 L247.8 210.8 L239.9 215.1 L231.1 218.8 L221.5 221.8 L211.3 223.9 L200.8 225.2 L190.0 225.7 L179.2 225.2 L168.7 223.9 L158.5 221.8 L148.9 218.8 L140.1 215.1 L132.2 210.8 L125.3 205.8 L119.7 200.3 L115.4 194.4 L112.4 188.2 L110.9 181.8 L110.9 175.4 L112.3 169.0 L115.1 162.8 L119.4 156.9 L124.9 151.4 Z" fill="url(#hatBody)" stroke="none"/>
      <path d="M124.9 151.4 L127.1 152.0 L129.3 152.6 L131.4 153.3 L133.6 154.0 L135.8 154.8 L137.9 155.7 L140.1 156.5 L142.3 157.4 L144.4 158.3 L146.6 159.3 L148.8 160.2 L151.0 161.1 L153.1 161.9 L155.3 162.7 L157.5 163.5 L159.6 164.2 L161.8 164.8 L164.0 165.3 L166.1 165.8 L168.3 166.2 L170.5 166.5 L172.6 166.7 L174.8 166.9 L177.0 167.0 L179.2 167.1 L181.3 167.1 L183.5 167.2 L185.7 167.2 L187.8 167.2 L190.0 167.2 L192.2 167.2 L194.3 167.2 L196.5 167.2 L198.7 167.1 L200.8 167.1 L203.0 167.0 L205.2 166.9 L207.4 166.7 L209.5 166.5 L211.7 166.2 L213.9 165.8 L216.0 165.3 L218.2 164.8 L220.4 164.2 L222.5 163.5 L224.7 162.7 L226.9 161.9 L229.0 161.1 L231.2 160.2 L233.4 159.3 L235.6 158.3 L237.7 157.4 L239.9 156.5 L242.1 155.7 L244.2 154.8 L246.4 154.0 L248.6 153.3 L250.7 152.6 L252.9 152.0 L255.1 151.4" fill="none" stroke="url(#hatRidge)" stroke-width="1.19" stroke-opacity="0.57" stroke-linejoin="round" stroke-linecap="round"/>
      <path d="M118.4 158.1 L120.7 158.8 L123.1 159.6 L125.5 160.5 L127.9 161.5 L130.3 162.6 L132.7 163.7 L135.1 164.9 L137.5 166.1 L139.8 167.4 L142.2 168.6 L144.6 169.7 L147.0 170.8 L149.4 171.8 L151.8 172.6 L154.2 173.2 L156.6 173.6 L159.0 173.9 L161.3 173.9 L163.7 173.7 L166.1 173.4 L168.5 172.8 L170.9 172.2 L173.3 171.4 L175.7 170.7 L178.1 169.9 L180.4 169.2 L182.8 168.6 L185.2 168.1 L187.6 167.8 L190.0 167.7 L192.4 167.8 L194.8 168.1 L197.2 168.6 L199.6 169.2 L201.9 169.9 L204.3 170.7 L206.7 171.4 L209.1 172.2 L211.5 172.8 L213.9 173.4 L216.3 173.7 L218.7 173.9 L221.0 173.9 L223.4 173.6 L225.8 173.2 L228.2 172.6 L230.6 171.8 L233.0 170.8 L235.4 169.7 L237.8 168.6 L240.2 167.4 L242.5 166.1 L244.9 164.9 L247.3 163.7 L249.7 162.6 L252.1 161.5 L254.5 160.5 L256.9 159.6 L259.3 158.8 L261.6 158.1 L261.6 158.1 L265.3 163.7 L267.9 169.4 L269.1 175.3 L269.2 181.3 L267.9 187.2 L265.5 192.9 L261.8 198.5 L257.0 203.7 L251.2 208.5 L244.4 212.8 L236.7 216.6 L228.3 219.8 L219.2 222.4 L209.8 224.2 L200.0 225.3 L190.0 225.7 L180.0 225.3 L170.2 224.2 L160.8 222.4 L151.7 219.8 L143.3 216.6 L135.6 212.8 L128.8 208.5 L123.0 203.7 L118.2 198.5 L114.5 192.9 L112.1 187.2 L110.8 181.3 L110.9 175.3 L112.1 169.4 L114.7 163.7 L118.4 158.1 Z" fill="url(#hatBody)" stroke="none"/>
      <path d="M118.4 158.1 L120.7 158.8 L123.1 159.6 L125.5 160.5 L127.9 161.5 L130.3 162.6 L132.7 163.7 L135.1 164.9 L137.5 166.1 L139.8 167.4 L142.2 168.6 L144.6 169.7 L147.0 170.8 L149.4 171.8 L151.8 172.6 L154.2 173.2 L156.6 173.6 L159.0 173.9 L161.3 173.9 L163.7 173.7 L166.1 173.4 L168.5 172.8 L170.9 172.2 L173.3 171.4 L175.7 170.7 L178.1 169.9 L180.4 169.2 L182.8 168.6 L185.2 168.1 L187.6 167.8 L190.0 167.7 L192.4 167.8 L194.8 168.1 L197.2 168.6 L199.6 169.2 L201.9 169.9 L204.3 170.7 L206.7 171.4 L209.1 172.2 L211.5 172.8 L213.9 173.4 L216.3 173.7 L218.7 173.9 L221.0 173.9 L223.4 173.6 L225.8 173.2 L228.2 172.6 L230.6 171.8 L233.0 170.8 L235.4 169.7 L237.8 168.6 L240.2 167.4 L242.5 166.1 L244.9 164.9 L247.3 163.7 L249.7 162.6 L252.1 161.5 L254.5 160.5 L256.9 159.6 L259.3 158.8 L261.6 158.1" fill="none" stroke="url(#hatRidge)" stroke-width="1.26" stroke-opacity="0.61" stroke-linejoin="round" stroke-linecap="round"/>
      <path d="M114.0 164.9 L116.5 165.7 L119.1 166.6 L121.6 167.7 L124.1 168.8 L126.7 170.1 L129.2 171.5 L131.7 172.9 L134.3 174.4 L136.8 175.8 L139.3 177.2 L141.9 178.4 L144.4 179.4 L146.9 180.2 L149.5 180.6 L152.0 180.7 L154.5 180.3 L157.1 179.5 L159.6 178.2 L162.1 176.5 L164.7 174.5 L167.2 172.1 L169.7 169.5 L172.3 166.7 L174.8 164.0 L177.3 161.4 L179.9 159.1 L182.4 157.1 L184.9 155.6 L187.5 154.7 L190.0 154.4 L192.5 154.7 L195.1 155.6 L197.6 157.1 L200.1 159.1 L202.7 161.4 L205.2 164.0 L207.7 166.7 L210.3 169.5 L212.8 172.1 L215.3 174.5 L217.9 176.5 L220.4 178.2 L222.9 179.5 L225.5 180.3 L228.0 180.7 L230.5 180.6 L233.1 180.2 L235.6 179.4 L238.1 178.4 L240.7 177.2 L243.2 175.8 L245.7 174.4 L248.3 172.9 L250.8 171.5 L253.3 170.1 L255.9 168.8 L258.4 167.7 L260.9 166.6 L263.5 165.7 L266.0 164.9 L266.0 164.9 L268.1 170.2 L269.2 175.7 L269.2 181.2 L268.1 186.7 L266.0 192.0 L262.8 197.2 L258.7 202.1 L253.6 206.7 L247.7 210.9 L240.9 214.6 L233.6 217.9 L225.6 220.7 L217.1 222.8 L208.3 224.4 L199.2 225.4 L190.0 225.7 L180.8 225.4 L171.7 224.4 L162.9 222.8 L154.4 220.7 L146.4 217.9 L139.1 214.6 L132.3 210.9 L126.4 206.7 L121.3 202.1 L117.2 197.2 L114.0 192.0 L111.9 186.7 L110.8 181.2 L110.8 175.7 L111.9 170.2 L114.0 164.9 Z" fill="url(#hatBody)" stroke="none"/>
      <path d="M114.0 164.9 L116.5 165.7 L119.1 166.6 L121.6 167.7 L124.1 168.8 L126.7 170.1 L129.2 171.5 L131.7 172.9 L134.3 174.4 L136.8 175.8 L139.3 177.2 L141.9 178.4 L144.4 179.4 L146.9 180.2 L149.5 180.6 L152.0 180.7 L154.5 180.3 L157.1 179.5 L159.6 178.2 L162.1 176.5 L164.7 174.5 L167.2 172.1 L169.7 169.5 L172.3 166.7 L174.8 164.0 L177.3 161.4 L179.9 159.1 L182.4 157.1 L184.9 155.6 L187.5 154.7 L190.0 154.4 L192.5 154.7 L195.1 155.6 L197.6 157.1 L200.1 159.1 L202.7 161.4 L205.2 164.0 L207.7 166.7 L210.3 169.5 L212.8 172.1 L215.3 174.5 L217.9 176.5 L220.4 178.2 L222.9 179.5 L225.5 180.3 L228.0 180.7 L230.5 180.6 L233.1 180.2 L235.6 179.4 L238.1 178.4 L240.7 177.2 L243.2 175.8 L245.7 174.4 L248.3 172.9 L250.8 171.5 L253.3 170.1 L255.9 168.8 L258.4 167.7 L260.9 166.6 L263.5 165.7 L266.0 164.9" fill="none" stroke="url(#hatRidge)" stroke-width="1.32" stroke-opacity="0.65" stroke-linejoin="round" stroke-linecap="round"/>
      <path d="M111.5 171.7 L114.1 172.5 L116.7 173.5 L119.4 174.7 L122.0 175.9 L124.6 177.4 L127.2 178.9 L129.8 180.5 L132.4 182.0 L135.1 183.6 L137.7 185.0 L140.3 186.1 L142.9 187.0 L145.5 187.4 L148.1 187.3 L150.8 186.6 L153.4 185.3 L156.0 183.2 L158.6 180.5 L161.2 177.0 L163.8 173.0 L166.5 168.5 L169.1 163.7 L171.7 158.7 L174.3 153.7 L176.9 149.1 L179.5 144.9 L182.2 141.4 L184.8 138.8 L187.4 137.1 L190.0 136.6 L192.6 137.1 L195.2 138.8 L197.8 141.4 L200.5 144.9 L203.1 149.1 L205.7 153.7 L208.3 158.7 L210.9 163.7 L213.5 168.5 L216.2 173.0 L218.8 177.0 L221.4 180.5 L224.0 183.2 L226.6 185.3 L229.2 186.6 L231.9 187.3 L234.5 187.4 L237.1 187.0 L239.7 186.1 L242.3 185.0 L244.9 183.6 L247.6 182.0 L250.2 180.5 L252.8 178.9 L255.4 177.4 L258.0 175.9 L260.6 174.7 L263.3 173.5 L265.9 172.5 L268.5 171.7 L268.5 171.7 L269.2 176.7 L269.1 181.8 L268.0 186.8 L266.1 191.7 L263.3 196.5 L259.6 201.1 L255.2 205.4 L249.9 209.4 L244.1 213.0 L237.5 216.2 L230.5 219.1 L223.0 221.4 L215.1 223.3 L206.9 224.6 L198.5 225.4 L190.0 225.7 L181.5 225.4 L173.1 224.6 L164.9 223.3 L157.0 221.4 L149.5 219.1 L142.5 216.2 L135.9 213.0 L130.1 209.4 L124.8 205.4 L120.4 201.1 L116.7 196.5 L113.9 191.7 L112.0 186.8 L110.9 181.8 L110.8 176.7 L111.5 171.7 Z" fill="url(#hatBody)" stroke="none"/>
      <path d="M111.5 171.7 L114.1 172.5 L116.7 173.5 L119.4 174.7 L122.0 175.9 L124.6 177.4 L127.2 178.9 L129.8 180.5 L132.4 182.0 L135.1 183.6 L137.7 185.0 L140.3 186.1 L142.9 187.0 L145.5 187.4 L148.1 187.3 L150.8 186.6 L153.4 185.3 L156.0 183.2 L158.6 180.5 L161.2 177.0 L163.8 173.0 L166.5 168.5 L169.1 163.7 L171.7 158.7 L174.3 153.7 L176.9 149.1 L179.5 144.9 L182.2 141.4 L184.8 138.8 L187.4 137.1 L190.0 136.6 L192.6 137.1 L195.2 138.8 L197.8 141.4 L200.5 144.9 L203.1 149.1 L205.7 153.7 L208.3 158.7 L210.9 163.7 L213.5 168.5 L216.2 173.0 L218.8 177.0 L221.4 180.5 L224.0 183.2 L226.6 185.3 L229.2 186.6 L231.9 187.3 L234.5 187.4 L237.1 187.0 L239.7 186.1 L242.3 185.0 L244.9 183.6 L247.6 182.0 L250.2 180.5 L252.8 178.9 L255.4 177.4 L258.0 175.9 L260.6 174.7 L263.3 173.5 L265.9 172.5 L268.5 171.7" fill="none" stroke="url(#hatRidge)" stroke-width="1.39" stroke-opacity="0.69" stroke-linejoin="round" stroke-linecap="round"/>
      <path d="M110.7 178.4 L113.3 179.3 L116.0 180.3 L118.6 181.5 L121.3 182.8 L123.9 184.3 L126.6 185.9 L129.2 187.5 L131.8 189.1 L134.5 190.7 L137.1 192.1 L139.8 193.2 L142.4 193.9 L145.1 194.2 L147.7 193.9 L150.3 192.8 L153.0 191.0 L155.6 188.4 L158.3 185.0 L160.9 180.8 L163.6 175.9 L166.2 170.4 L168.9 164.5 L171.5 158.5 L174.1 152.6 L176.8 147.0 L179.4 142.0 L182.1 137.8 L184.7 134.6 L187.4 132.7 L190.0 132.0 L192.6 132.7 L195.3 134.6 L197.9 137.8 L200.6 142.0 L203.2 147.0 L205.9 152.6 L208.5 158.5 L211.1 164.5 L213.8 170.4 L216.4 175.9 L219.1 180.8 L221.7 185.0 L224.4 188.4 L227.0 191.0 L229.7 192.8 L232.3 193.9 L234.9 194.2 L237.6 193.9 L240.2 193.2 L242.9 192.1 L245.5 190.7 L248.2 189.1 L250.8 187.5 L253.4 185.9 L256.1 184.3 L258.7 182.8 L261.4 181.5 L264.0 180.3 L266.7 179.3 L269.3 178.4 L269.3 178.4 L268.9 183.0 L267.8 187.6 L265.9 192.1 L263.3 196.5 L259.9 200.7 L255.9 204.7 L251.3 208.4 L246.1 211.8 L240.3 215.0 L234.1 217.7 L227.4 220.1 L220.3 222.1 L213.0 223.6 L205.5 224.8 L197.8 225.5 L190.0 225.7 L182.2 225.5 L174.5 224.8 L167.0 223.6 L159.7 222.1 L152.6 220.1 L145.9 217.7 L139.7 215.0 L133.9 211.8 L128.7 208.4 L124.1 204.7 L120.1 200.7 L116.7 196.5 L114.1 192.1 L112.2 187.6 L111.1 183.0 L110.7 178.4 Z" fill="url(#hatBody)" stroke="none"/>
      <path d="M110.7 178.4 L113.3 179.3 L116.0 180.3 L118.6 181.5 L121.3 182.8 L123.9 184.3 L126.6 185.9 L129.2 187.5 L131.8 189.1 L134.5 190.7 L137.1 192.1 L139.8 193.2 L142.4 193.9 L145.1 194.2 L147.7 193.9 L150.3 192.8 L153.0 191.0 L155.6 188.4 L158.3 185.0 L160.9 180.8 L163.6 175.9 L166.2 170.4 L168.9 164.5 L171.5 158.5 L174.1 152.6 L176.8 147.0 L179.4 142.0 L182.1 137.8 L184.7 134.6 L187.4 132.7 L190.0 132.0 L192.6 132.7 L195.3 134.6 L197.9 137.8 L200.6 142.0 L203.2 147.0 L205.9 152.6 L208.5 158.5 L211.1 164.5 L213.8 170.4 L216.4 175.9 L219.1 180.8 L221.7 185.0 L224.4 188.4 L227.0 191.0 L229.7 192.8 L232.3 193.9 L234.9 194.2 L237.6 193.9 L240.2 193.2 L242.9 192.1 L245.5 190.7 L248.2 189.1 L250.8 187.5 L253.4 185.9 L256.1 184.3 L258.7 182.8 L261.4 181.5 L264.0 180.3 L266.7 179.3 L269.3 178.4" fill="none" stroke="url(#hatRidge)" stroke-width="1.45" stroke-opacity="0.73" stroke-linejoin="round" stroke-linecap="round"/>
      <path d="M111.5 185.2 L114.1 186.0 L116.7 187.0 L119.4 188.2 L122.0 189.5 L124.6 190.9 L127.2 192.4 L129.8 194.0 L132.4 195.6 L135.1 197.1 L137.7 198.5 L140.3 199.6 L142.9 200.5 L145.5 200.9 L148.1 200.8 L150.8 200.1 L153.4 198.8 L156.0 196.7 L158.6 194.0 L161.2 190.5 L163.8 186.5 L166.5 182.0 L169.1 177.2 L171.7 172.2 L174.3 167.2 L176.9 162.6 L179.5 158.4 L182.2 154.9 L184.8 152.3 L187.4 150.6 L190.0 150.1 L192.6 150.6 L195.2 152.3 L197.8 154.9 L200.5 158.4 L203.1 162.6 L205.7 167.2 L208.3 172.2 L210.9 177.2 L213.5 182.0 L216.2 186.5 L218.8 190.5 L221.4 194.0 L224.0 196.7 L226.6 198.8 L229.2 200.1 L231.9 200.8 L234.5 200.9 L237.1 200.5 L239.7 199.6 L242.3 198.5 L244.9 197.1 L247.6 195.6 L250.2 194.0 L252.8 192.4 L255.4 190.9 L258.0 189.5 L260.6 188.2 L263.3 187.0 L265.9 186.0 L268.5 185.2 L268.5 185.2 L267.2 189.3 L265.2 193.4 L262.7 197.3 L259.6 201.1 L255.9 204.7 L251.7 208.1 L247.0 211.2 L241.9 214.1 L236.4 216.8 L230.5 219.1 L224.2 221.1 L217.7 222.7 L211.0 224.0 L204.1 224.9 L197.1 225.5 L190.0 225.7 L182.9 225.5 L175.9 224.9 L169.0 224.0 L162.3 222.7 L155.8 221.1 L149.5 219.1 L143.6 216.8 L138.1 214.1 L133.0 211.2 L128.3 208.1 L124.1 204.7 L120.4 201.1 L117.3 197.3 L114.8 193.4 L112.8 189.3 L111.5 185.2 Z" fill="url(#hatBody)" stroke="none"/>
      <path d="M111.5 185.2 L114.1 186.0 L116.7 187.0 L119.4 188.2 L122.0 189.5 L124.6 190.9 L127.2 192.4 L129.8 194.0 L132.4 195.6 L135.1 197.1 L137.7 198.5 L140.3 199.6 L142.9 200.5 L145.5 200.9 L148.1 200.8 L150.8 200.1 L153.4 198.8 L156.0 196.7 L158.6 194.0 L161.2 190.5 L163.8 186.5 L166.5 182.0 L169.1 177.2 L171.7 172.2 L174.3 167.2 L176.9 162.6 L179.5 158.4 L182.2 154.9 L184.8 152.3 L187.4 150.6 L190.0 150.1 L192.6 150.6 L195.2 152.3 L197.8 154.9 L200.5 158.4 L203.1 162.6 L205.7 167.2 L208.3 172.2 L210.9 177.2 L213.5 182.0 L216.2 186.5 L218.8 190.5 L221.4 194.0 L224.0 196.7 L226.6 198.8 L229.2 200.1 L231.9 200.8 L234.5 200.9 L237.1 200.5 L239.7 199.6 L242.3 198.5 L244.9 197.1 L247.6 195.6 L250.2 194.0 L252.8 192.4 L255.4 190.9 L258.0 189.5 L260.6 188.2 L263.3 187.0 L265.9 186.0 L268.5 185.2" fill="none" stroke="url(#hatRidge)" stroke-width="1.51" stroke-opacity="0.76" stroke-linejoin="round" stroke-linecap="round"/>
      <path d="M114.0 191.9 L116.5 192.7 L119.1 193.6 L121.6 194.7 L124.1 195.9 L126.7 197.1 L129.2 198.5 L131.7 199.9 L134.3 201.4 L136.8 202.8 L139.3 204.2 L141.9 205.4 L144.4 206.4 L146.9 207.2 L149.5 207.6 L152.0 207.7 L154.5 207.3 L157.1 206.5 L159.6 205.2 L162.1 203.5 L164.7 201.5 L167.2 199.1 L169.7 196.5 L172.3 193.7 L174.8 191.0 L177.3 188.4 L179.9 186.1 L182.4 184.1 L184.9 182.7 L187.5 181.7 L190.0 181.4 L192.5 181.7 L195.1 182.7 L197.6 184.1 L200.1 186.1 L202.7 188.4 L205.2 191.0 L207.7 193.7 L210.3 196.5 L212.8 199.1 L215.3 201.5 L217.9 203.5 L220.4 205.2 L222.9 206.5 L225.5 207.3 L228.0 207.7 L230.5 207.6 L233.1 207.2 L235.6 206.4 L238.1 205.4 L240.7 204.2 L243.2 202.8 L245.7 201.4 L248.3 199.9 L250.8 198.5 L253.3 197.1 L255.9 195.9 L258.4 194.7 L260.9 193.6 L263.5 192.7 L266.0 191.9 L266.0 191.9 L263.9 195.5 L261.4 199.0 L258.4 202.3 L255.0 205.5 L251.2 208.5 L246.9 211.3 L242.3 213.9 L237.4 216.3 L232.2 218.5 L226.6 220.3 L220.9 221.9 L215.0 223.3 L208.9 224.3 L202.6 225.1 L196.3 225.5 L190.0 225.7 L183.7 225.5 L177.4 225.1 L171.1 224.3 L165.0 223.3 L159.1 221.9 L153.4 220.3 L147.8 218.5 L142.6 216.3 L137.7 213.9 L133.1 211.3 L128.8 208.5 L125.0 205.5 L121.6 202.3 L118.6 199.0 L116.1 195.5 L114.0 191.9 Z" fill="url(#hatBody)" stroke="none"/>
      <path d="M114.0 191.9 L116.5 192.7 L119.1 193.6 L121.6 194.7 L124.1 195.9 L126.7 197.1 L129.2 198.5 L131.7 199.9 L134.3 201.4 L136.8 202.8 L139.3 204.2 L141.9 205.4 L144.4 206.4 L146.9 207.2 L149.5 207.6 L152.0 207.7 L154.5 207.3 L157.1 206.5 L159.6 205.2 L162.1 203.5 L164.7 201.5 L167.2 199.1 L169.7 196.5 L172.3 193.7 L174.8 191.0 L177.3 188.4 L179.9 186.1 L182.4 184.1 L184.9 182.7 L187.5 181.7 L190.0 181.4 L192.5 181.7 L195.1 182.7 L197.6 184.1 L200.1 186.1 L202.7 188.4 L205.2 191.0 L207.7 193.7 L210.3 196.5 L212.8 199.1 L215.3 201.5 L217.9 203.5 L220.4 205.2 L222.9 206.5 L225.5 207.3 L228.0 207.7 L230.5 207.6 L233.1 207.2 L235.6 206.4 L238.1 205.4 L240.7 204.2 L243.2 202.8 L245.7 201.4 L248.3 199.9 L250.8 198.5 L253.3 197.1 L255.9 195.9 L258.4 194.7 L260.9 193.6 L263.5 192.7 L266.0 191.9" fill="none" stroke="url(#hatRidge)" stroke-width="1.58" stroke-opacity="0.80" stroke-linejoin="round" stroke-linecap="round"/>
      <path d="M118.4 198.7 L120.7 199.4 L123.1 200.2 L125.5 201.1 L127.9 202.0 L130.3 203.1 L132.7 204.2 L135.1 205.4 L137.5 206.6 L139.8 207.9 L142.2 209.1 L144.6 210.2 L147.0 211.3 L149.4 212.3 L151.8 213.1 L154.2 213.7 L156.6 214.2 L159.0 214.4 L161.3 214.4 L163.7 214.3 L166.1 213.9 L168.5 213.4 L170.9 212.7 L173.3 212.0 L175.7 211.2 L178.1 210.4 L180.4 209.7 L182.8 209.1 L185.2 208.6 L187.6 208.3 L190.0 208.2 L192.4 208.3 L194.8 208.6 L197.2 209.1 L199.6 209.7 L201.9 210.4 L204.3 211.2 L206.7 212.0 L209.1 212.7 L211.5 213.4 L213.9 213.9 L216.3 214.3 L218.7 214.4 L221.0 214.4 L223.4 214.2 L225.8 213.7 L228.2 213.1 L230.6 212.3 L233.0 211.3 L235.4 210.2 L237.8 209.1 L240.2 207.9 L242.5 206.6 L244.9 205.4 L247.3 204.2 L249.7 203.1 L252.1 202.0 L254.5 201.1 L256.9 200.2 L259.3 199.4 L261.6 198.7 L261.6 198.7 L259.1 201.6 L256.2 204.5 L252.9 207.2 L249.4 209.8 L245.5 212.2 L241.4 214.4 L237.0 216.5 L232.4 218.4 L227.6 220.0 L222.5 221.5 L217.4 222.8 L212.1 223.8 L206.6 224.6 L201.1 225.2 L195.6 225.6 L190.0 225.7 L184.4 225.6 L178.9 225.2 L173.4 224.6 L167.9 223.8 L162.6 222.8 L157.5 221.5 L152.4 220.0 L147.6 218.4 L143.0 216.5 L138.6 214.4 L134.5 212.2 L130.6 209.8 L127.1 207.2 L123.8 204.5 L120.9 201.6 L118.4 198.7 Z" fill="url(#hatBody)" stroke="none"/>
      <path d="M118.4 198.7 L120.7 199.4 L123.1 200.2 L125.5 201.1 L127.9 202.0 L130.3 203.1 L132.7 204.2 L135.1 205.4 L137.5 206.6 L139.8 207.9 L142.2 209.1 L144.6 210.2 L147.0 211.3 L149.4 212.3 L151.8 213.1 L154.2 213.7 L156.6 214.2 L159.0 214.4 L161.3 214.4 L163.7 214.3 L166.1 213.9 L168.5 213.4 L170.9 212.7 L173.3 212.0 L175.7 211.2 L178.1 210.4 L180.4 209.7 L182.8 209.1 L185.2 208.6 L187.6 208.3 L190.0 208.2 L192.4 208.3 L194.8 208.6 L197.2 209.1 L199.6 209.7 L201.9 210.4 L204.3 211.2 L206.7 212.0 L209.1 212.7 L211.5 213.4 L213.9 213.9 L216.3 214.3 L218.7 214.4 L221.0 214.4 L223.4 214.2 L225.8 213.7 L228.2 213.1 L230.6 212.3 L233.0 211.3 L235.4 210.2 L237.8 209.1 L240.2 207.9 L242.5 206.6 L244.9 205.4 L247.3 204.2 L249.7 203.1 L252.1 202.0 L254.5 201.1 L256.9 200.2 L259.3 199.4 L261.6 198.7" fill="none" stroke="url(#hatRidge)" stroke-width="1.64" stroke-opacity="0.84" stroke-linejoin="round" stroke-linecap="round"/>
      <path d="M124.9 205.4 L127.1 206.0 L129.3 206.6 L131.4 207.3 L133.6 208.1 L135.8 208.8 L137.9 209.7 L140.1 210.6 L142.3 211.5 L144.4 212.4 L146.6 213.3 L148.8 214.2 L151.0 215.1 L153.1 216.0 L155.3 216.8 L157.5 217.5 L159.6 218.2 L161.8 218.8 L164.0 219.4 L166.1 219.8 L168.3 220.2 L170.5 220.5 L172.6 220.7 L174.8 220.9 L177.0 221.0 L179.2 221.1 L181.3 221.2 L183.5 221.2 L185.7 221.2 L187.8 221.2 L190.0 221.2 L192.2 221.2 L194.3 221.2 L196.5 221.2 L198.7 221.2 L200.8 221.1 L203.0 221.0 L205.2 220.9 L207.4 220.7 L209.5 220.5 L211.7 220.2 L213.9 219.8 L216.0 219.4 L218.2 218.8 L220.4 218.2 L222.5 217.5 L224.7 216.8 L226.9 216.0 L229.0 215.1 L231.2 214.2 L233.4 213.3 L235.6 212.4 L237.7 211.5 L239.9 210.6 L242.1 209.7 L244.2 208.8 L246.4 208.1 L248.6 207.3 L250.7 206.6 L252.9 206.0 L255.1 205.4 L255.1 205.4 L252.2 207.7 L249.2 209.9 L245.9 211.9 L242.4 213.9 L238.7 215.7 L234.9 217.4 L230.9 218.9 L226.7 220.3 L222.4 221.6 L218.0 222.6 L213.5 223.6 L208.9 224.3 L204.2 224.9 L199.5 225.3 L194.8 225.6 L190.0 225.7 L185.2 225.6 L180.5 225.3 L175.8 224.9 L171.1 224.3 L166.5 223.6 L162.0 222.6 L157.6 221.6 L153.3 220.3 L149.1 218.9 L145.1 217.4 L141.3 215.7 L137.6 213.9 L134.1 211.9 L130.8 209.9 L127.8 207.7 L124.9 205.4 Z" fill="url(#hatBody)" stroke="none"/>
      <path d="M124.9 205.4 L127.1 206.0 L129.3 206.6 L131.4 207.3 L133.6 208.1 L135.8 208.8 L137.9 209.7 L140.1 210.6 L142.3 211.5 L144.4 212.4 L146.6 213.3 L148.8 214.2 L151.0 215.1 L153.1 216.0 L155.3 216.8 L157.5 217.5 L159.6 218.2 L161.8 218.8 L164.0 219.4 L166.1 219.8 L168.3 220.2 L170.5 220.5 L172.6 220.7 L174.8 220.9 L177.0 221.0 L179.2 221.1 L181.3 221.2 L183.5 221.2 L185.7 221.2 L187.8 221.2 L190.0 221.2 L192.2 221.2 L194.3 221.2 L196.5 221.2 L198.7 221.2 L200.8 221.1 L203.0 221.0 L205.2 220.9 L207.4 220.7 L209.5 220.5 L211.7 220.2 L213.9 219.8 L216.0 219.4 L218.2 218.8 L220.4 218.2 L222.5 217.5 L224.7 216.8 L226.9 216.0 L229.0 215.1 L231.2 214.2 L233.4 213.3 L235.6 212.4 L237.7 211.5 L239.9 210.6 L242.1 209.7 L244.2 208.8 L246.4 208.1 L248.6 207.3 L250.7 206.6 L252.9 206.0 L255.1 205.4" fill="none" stroke="url(#hatRidge)" stroke-width="1.71" stroke-opacity="0.88" stroke-linejoin="round" stroke-linecap="round"/>
      <path d="M134.5 212.2 L136.4 212.6 L138.2 213.0 L140.1 213.5 L141.9 214.0 L143.8 214.5 L145.6 215.0 L147.5 215.5 L149.3 216.1 L151.2 216.6 L153.0 217.2 L154.9 217.7 L156.7 218.3 L158.6 218.8 L160.4 219.3 L162.3 219.8 L164.1 220.3 L166.0 220.8 L167.8 221.2 L169.7 221.6 L171.5 222.0 L173.4 222.3 L175.2 222.6 L177.1 222.9 L178.9 223.1 L180.8 223.3 L182.6 223.5 L184.5 223.6 L186.3 223.7 L188.2 223.8 L190.0 223.8 L191.8 223.8 L193.7 223.7 L195.5 223.6 L197.4 223.5 L199.2 223.3 L201.1 223.1 L202.9 222.9 L204.8 222.6 L206.6 222.3 L208.5 222.0 L210.3 221.6 L212.2 221.2 L214.0 220.8 L215.9 220.3 L217.7 219.8 L219.6 219.3 L221.4 218.8 L223.3 218.3 L225.1 217.7 L227.0 217.2 L228.8 216.6 L230.7 216.1 L232.5 215.5 L234.4 215.0 L236.2 214.5 L238.1 214.0 L239.9 213.5 L241.8 213.0 L243.6 212.6 L245.5 212.2 L245.5 212.2 L242.7 213.7 L239.8 215.2 L236.7 216.6 L233.6 217.9 L230.3 219.1 L226.9 220.2 L223.5 221.3 L220.0 222.2 L216.4 223.0 L212.7 223.7 L209.0 224.3 L205.3 224.8 L201.5 225.2 L197.7 225.5 L193.8 225.6 L190.0 225.7 L186.2 225.6 L182.3 225.5 L178.5 225.2 L174.7 224.8 L171.0 224.3 L167.3 223.7 L163.6 223.0 L160.0 222.2 L156.5 221.3 L153.1 220.2 L149.7 219.1 L146.4 217.9 L143.3 216.6 L140.2 215.2 L137.3 213.7 L134.5 212.2 Z" fill="url(#hatBody)" stroke="none"/>
      <path d="M134.5 212.2 L136.4 212.6 L138.2 213.0 L140.1 213.5 L141.9 214.0 L143.8 214.5 L145.6 215.0 L147.5 215.5 L149.3 216.1 L151.2 216.6 L153.0 217.2 L154.9 217.7 L156.7 218.3 L158.6 218.8 L160.4 219.3 L162.3 219.8 L164.1 220.3 L166.0 220.8 L167.8 221.2 L169.7 221.6 L171.5 222.0 L173.4 222.3 L175.2 222.6 L177.1 222.9 L178.9 223.1 L180.8 223.3 L182.6 223.5 L184.5 223.6 L186.3 223.7 L188.2 223.8 L190.0 223.8 L191.8 223.8 L193.7 223.7 L195.5 223.6 L197.4 223.5 L199.2 223.3 L201.1 223.1 L202.9 222.9 L204.8 222.6 L206.6 222.3 L208.5 222.0 L210.3 221.6 L212.2 221.2 L214.0 220.8 L215.9 220.3 L217.7 219.8 L219.6 219.3 L221.4 218.8 L223.3 218.3 L225.1 217.7 L227.0 217.2 L228.8 216.6 L230.7 216.1 L232.5 215.5 L234.4 215.0 L236.2 214.5 L238.1 214.0 L239.9 213.5 L241.8 213.0 L243.6 212.6 L245.5 212.2" fill="none" stroke="url(#hatRidge)" stroke-width="1.77" stroke-opacity="0.92" stroke-linejoin="round" stroke-linecap="round"/>
      <path d="M149.2 218.9 L150.5 219.1 L151.9 219.4 L153.2 219.6 L154.6 219.8 L156.0 220.0 L157.3 220.3 L158.7 220.5 L160.0 220.7 L161.4 220.9 L162.8 221.2 L164.1 221.4 L165.5 221.6 L166.9 221.8 L168.2 222.0 L169.6 222.2 L170.9 222.4 L172.3 222.6 L173.7 222.7 L175.0 222.9 L176.4 223.0 L177.7 223.2 L179.1 223.3 L180.5 223.4 L181.8 223.5 L183.2 223.6 L184.6 223.6 L185.9 223.7 L187.3 223.7 L188.6 223.7 L190.0 223.8 L191.4 223.7 L192.7 223.7 L194.1 223.7 L195.4 223.6 L196.8 223.6 L198.2 223.5 L199.5 223.4 L200.9 223.3 L202.3 223.2 L203.6 223.0 L205.0 222.9 L206.3 222.7 L207.7 222.6 L209.1 222.4 L210.4 222.2 L211.8 222.0 L213.1 221.8 L214.5 221.6 L215.9 221.4 L217.2 221.2 L218.6 220.9 L220.0 220.7 L221.3 220.5 L222.7 220.3 L224.0 220.0 L225.4 219.8 L226.8 219.6 L228.1 219.4 L229.5 219.1 L230.8 218.9 L230.8 218.9 L228.5 219.7 L226.2 220.5 L223.8 221.2 L221.3 221.8 L218.8 222.5 L216.3 223.0 L213.8 223.5 L211.2 224.0 L208.6 224.4 L206.0 224.7 L203.3 225.0 L200.7 225.3 L198.0 225.4 L195.4 225.6 L192.7 225.7 L190.0 225.7 L187.3 225.7 L184.6 225.6 L182.0 225.4 L179.3 225.3 L176.7 225.0 L174.0 224.7 L171.4 224.4 L168.8 224.0 L166.2 223.5 L163.7 223.0 L161.2 222.5 L158.7 221.8 L156.2 221.2 L153.8 220.5 L151.5 219.7 L149.2 218.9 Z" fill="url(#hatBody)" stroke="none"/>
      <path d="M149.2 218.9 L150.5 219.1 L151.9 219.4 L153.2 219.6 L154.6 219.8 L156.0 220.0 L157.3 220.3 L158.7 220.5 L160.0 220.7 L161.4 220.9 L162.8 221.2 L164.1 221.4 L165.5 221.6 L166.9 221.8 L168.2 222.0 L169.6 222.2 L170.9 222.4 L172.3 222.6 L173.7 222.7 L175.0 222.9 L176.4 223.0 L177.7 223.2 L179.1 223.3 L180.5 223.4 L181.8 223.5 L183.2 223.6 L184.6 223.6 L185.9 223.7 L187.3 223.7 L188.6 223.7 L190.0 223.8 L191.4 223.7 L192.7 223.7 L194.1 223.7 L195.4 223.6 L196.8 223.6 L198.2 223.5 L199.5 223.4 L200.9 223.3 L202.3 223.2 L203.6 223.0 L205.0 222.9 L206.3 222.7 L207.7 222.6 L209.1 222.4 L210.4 222.2 L211.8 222.0 L213.1 221.8 L214.5 221.6 L215.9 221.4 L217.2 221.2 L218.6 220.9 L220.0 220.7 L221.3 220.5 L222.7 220.3 L224.0 220.0 L225.4 219.8 L226.8 219.6 L228.1 219.4 L229.5 219.1 L230.8 218.9" fill="none" stroke="url(#hatRidge)" stroke-width="1.84" stroke-opacity="0.96" stroke-linejoin="round" stroke-linecap="round"/>
      <path d="M269.0 174.6 L269.3 177.9 L269.2 181.3 L268.6 184.6 L267.7 187.8 L266.4 191.1 L264.7 194.2 L262.7 197.3 L260.3 200.3 L257.5 203.2 L254.4 206.0 L251.0 208.6 L247.3 211.1 L243.3 213.4 L239.1 215.5 L234.6 217.5 L229.9 219.3 L225.0 220.8 L219.9 222.2 L214.7 223.3 L209.3 224.3 L203.9 225.0 L198.3 225.4 L192.8 225.7 L187.2 225.7 L181.7 225.4 L176.1 225.0 L170.7 224.3 L165.3 223.3 L160.1 222.2 L155.0 220.8 L150.1 219.3 L145.4 217.5 L140.9 215.5 L136.7 213.4 L132.7 211.1 L129.0 208.6 L125.6 206.0 L122.5 203.2 L119.7 200.3 L117.3 197.3 L115.3 194.2 L113.6 191.1 L112.3 187.8 L111.4 184.6 L110.8 181.3 L110.7 177.9 L111.0 174.6" fill="none" stroke="url(#hatRidge)" stroke-width="2.4" stroke-opacity="1" stroke-linecap="round"/>
    </g>
  </g>

  <!-- Function caption under the hat -->
  <text x="190.0" y="264.3" text-anchor="middle" class="mono"
        fill="#6b7280" opacity="0.9">z = (1 &#8722; r&#178;) &#183; e^(&#8722;r&#178;/2)</text>
  <text x="190.0" y="282.3" text-anchor="middle" class="stat-text" opacity="0.7">bytes in &#8226; events out &#8226; nothing blocks</text>

  <!-- ===== Right: text content ===== -->
  <g transform="translate(400, 0)">
    <text x="0" y="96" class="title-text" filter="url(#textGlow)">gonzalez</text>
    <text x="0" y="124" class="subtitle-text">Non-blocking streaming XML for Java</text>

    <!-- Feature badges: 3 rows -->
    <g transform="translate(0, 148)">
      <g class="shimmer" style="animation-delay: 0s;">
        <rect x="0" y="0" width="118" height="26" rx="4" fill="#1a1a2e" stroke="#e8a33d" stroke-width="1" opacity="0.85"/>
        <text x="59" y="17" text-anchor="middle" class="feature-text">Push Parsing</text>
      </g>
      <g class="shimmer" style="animation-delay: 0.3s;">
        <rect x="126" y="0" width="118" height="26" rx="4" fill="#1a1a2e" stroke="#e8a33d" stroke-width="1" opacity="0.85"/>
        <text x="185" y="17" text-anchor="middle" class="feature-text">Non-Blocking</text>
      </g>
      <g class="shimmer" style="animation-delay: 0.6s;">
        <rect x="252" y="0" width="118" height="26" rx="4" fill="#1a1a2e" stroke="#e8a33d" stroke-width="1" opacity="0.85"/>
        <text x="311" y="17" text-anchor="middle" class="feature-text">Streaming</text>
      </g>

      <g class="shimmer" style="animation-delay: 0.9s;">
        <rect x="0" y="36" width="118" height="26" rx="4" fill="#1a1a2e" stroke="#ffd57a" stroke-width="1" opacity="0.85"/>
        <text x="59" y="53" text-anchor="middle" class="feature-text">Conformant</text>
      </g>
      <g class="shimmer" style="animation-delay: 1.2s;">
        <rect x="126" y="36" width="118" height="26" rx="4" fill="#1a1a2e" stroke="#ffd57a" stroke-width="1" opacity="0.85"/>
        <text x="185" y="53" text-anchor="middle" class="feature-text">DTD Validating</text>
      </g>
      <g class="shimmer" style="animation-delay: 1.5s;">
        <rect x="252" y="36" width="118" height="26" rx="4" fill="#1a1a2e" stroke="#ffd57a" stroke-width="1" opacity="0.85"/>
        <text x="311" y="53" text-anchor="middle" class="feature-text">XSLT 3.0</text>
      </g>

      <g class="shimmer" style="animation-delay: 1.8s;">
        <rect x="0" y="72" width="118" height="26" rx="4" fill="#1a1a2e" stroke="#b8863b" stroke-width="1" opacity="0.85"/>
        <text x="59" y="89" text-anchor="middle" class="feature-text">SAX + JAXP</text>
      </g>
      <g class="shimmer" style="animation-delay: 2.1s;">
        <rect x="126" y="72" width="118" height="26" rx="4" fill="#1a1a2e" stroke="#b8863b" stroke-width="1" opacity="0.85"/>
        <text x="185" y="89" text-anchor="middle" class="feature-text">Zero-Dep</text>
      </g>
      <g class="shimmer" style="animation-delay: 2.4s;">
        <rect x="252" y="72" width="118" height="26" rx="4" fill="#1a1a2e" stroke="#b8863b" stroke-width="1" opacity="0.85"/>
        <text x="311" y="89" text-anchor="middle" class="feature-text">Constant Mem</text>
      </g>
    </g>

    <!-- Honest numbers -->
    <g transform="translate(0, 290)">
      <g class="fade-slide">
        <text x="0" y="0" class="stat-text"><tspan class="stat-strong">Faster</tspan> than JDK XML parsing</text>
      </g>
      <g class="fade-slide" style="animation-delay: 2s;">
        <text x="0" y="20" class="stat-text"><tspan class="stat-strong">1879/1879</tspan> 100% W3C XML conformance tests pass</text>
      </g>
      <g class="fade-slide" style="animation-delay: 4s;">
        <text x="0" y="40" class="stat-text"><tspan class="stat-strong">9418/9426</tspan> 99.9% W3C XSLT 3.0 conformance tests pass</text>
      </g>
    </g>

    <!-- Call to action hint -->
    <text x="0" y="368" opacity="0.7" class="mono" fill="#a0a0b0">Near zero latency</text>
  </g>

  <!-- Decorative corner accents -->
  <path d="M0 30 L0 0 L30 0" fill="none" stroke="#e8a33d" stroke-width="2" opacity="0.5"/>
  <path d="M800 30 L800 0 L770 0" fill="none" stroke="#e8a33d" stroke-width="2" opacity="0.5"/>
  <path d="M0 370 L0 400 L30 400" fill="none" stroke="#e8a33d" stroke-width="2" opacity="0.5"/>
  <path d="M800 370 L800 400 L770 400" fill="none" stroke="#e8a33d" stroke-width="2" opacity="0.5"/>
</svg>
